<mxfile host="app.diagrams.net" modified="2024-02-14T19:59:45.811Z" agent="Mozilla/5.0 (Windows NT 10.0; Win64; x64) AppleWebKit/537.36 (KHTML, like Gecko) Chrome/121.0.0.0 Safari/537.36 Edg/121.0.0.0" etag="zqjb4T6o1bRHiH60ZT30" version="23.1.4" type="google">
  <diagram name="Page-1" id="xWGi8_koI1nfsjpRyqNU">
    <mxGraphModel dx="2335" dy="1078" grid="1" gridSize="10" guides="1" tooltips="1" connect="1" arrows="1" fold="1" page="1" pageScale="1" pageWidth="850" pageHeight="1100" math="0" shadow="0">
      <root>
        <mxCell id="0" />
        <mxCell id="1" parent="0" />
        <mxCell id="z4wA7xu3LtJDyuMt949T-326" style="edgeStyle=none;rounded=0;orthogonalLoop=1;jettySize=auto;html=1;exitX=0;exitY=0.25;exitDx=0;exitDy=0;endArrow=none;endFill=0;" parent="1" source="z4wA7xu3LtJDyuMt949T-164" edge="1">
          <mxGeometry relative="1" as="geometry">
            <mxPoint x="20" y="216.71428571428567" as="targetPoint" />
          </mxGeometry>
        </mxCell>
        <mxCell id="z4wA7xu3LtJDyuMt949T-327" style="edgeStyle=none;rounded=0;orthogonalLoop=1;jettySize=auto;html=1;exitX=0;exitY=0.5;exitDx=0;exitDy=0;endArrow=none;endFill=0;" parent="1" source="z4wA7xu3LtJDyuMt949T-164" edge="1">
          <mxGeometry relative="1" as="geometry">
            <mxPoint x="60" y="223.57142857142856" as="targetPoint" />
          </mxGeometry>
        </mxCell>
        <mxCell id="z4wA7xu3LtJDyuMt949T-328" style="edgeStyle=none;rounded=0;orthogonalLoop=1;jettySize=auto;html=1;exitX=0;exitY=0.75;exitDx=0;exitDy=0;endArrow=none;endFill=0;" parent="1" source="z4wA7xu3LtJDyuMt949T-164" edge="1">
          <mxGeometry relative="1" as="geometry">
            <mxPoint x="100" y="230.42857142857144" as="targetPoint" />
          </mxGeometry>
        </mxCell>
        <mxCell id="z4wA7xu3LtJDyuMt949T-164" value="RGB" style="rounded=1;whiteSpace=wrap;html=1;" parent="1" vertex="1">
          <mxGeometry x="140" y="210" width="70" height="26.87" as="geometry" />
        </mxCell>
        <mxCell id="z4wA7xu3LtJDyuMt949T-223" style="edgeStyle=elbowEdgeStyle;rounded=0;orthogonalLoop=1;jettySize=auto;html=1;exitX=1;exitY=0.5;exitDx=0;exitDy=0;entryX=0;entryY=0.5;entryDx=0;entryDy=0;entryPerimeter=0;endArrow=none;endFill=0;" parent="1" source="z4wA7xu3LtJDyuMt949T-167" target="z4wA7xu3LtJDyuMt949T-110" edge="1">
          <mxGeometry relative="1" as="geometry">
            <mxPoint x="369.9999999999998" y="280" as="targetPoint" />
            <Array as="points">
              <mxPoint x="240" y="270" />
            </Array>
          </mxGeometry>
        </mxCell>
        <mxCell id="z4wA7xu3LtJDyuMt949T-329" style="edgeStyle=none;rounded=0;orthogonalLoop=1;jettySize=auto;html=1;exitX=0;exitY=0.25;exitDx=0;exitDy=0;endArrow=none;endFill=0;" parent="1" source="z4wA7xu3LtJDyuMt949T-167" edge="1">
          <mxGeometry relative="1" as="geometry">
            <mxPoint x="20" y="256.71428571428567" as="targetPoint" />
          </mxGeometry>
        </mxCell>
        <mxCell id="z4wA7xu3LtJDyuMt949T-330" style="edgeStyle=none;rounded=0;orthogonalLoop=1;jettySize=auto;html=1;exitX=0;exitY=0.5;exitDx=0;exitDy=0;endArrow=none;endFill=0;" parent="1" source="z4wA7xu3LtJDyuMt949T-167" edge="1">
          <mxGeometry relative="1" as="geometry">
            <mxPoint x="60" y="263.57142857142856" as="targetPoint" />
          </mxGeometry>
        </mxCell>
        <mxCell id="z4wA7xu3LtJDyuMt949T-331" style="edgeStyle=none;rounded=0;orthogonalLoop=1;jettySize=auto;html=1;exitX=0;exitY=0.75;exitDx=0;exitDy=0;endArrow=none;endFill=0;" parent="1" source="z4wA7xu3LtJDyuMt949T-167" edge="1">
          <mxGeometry relative="1" as="geometry">
            <mxPoint x="100" y="270.42857142857144" as="targetPoint" />
          </mxGeometry>
        </mxCell>
        <mxCell id="z4wA7xu3LtJDyuMt949T-167" value="RGB" style="rounded=1;whiteSpace=wrap;html=1;" parent="1" vertex="1">
          <mxGeometry x="140" y="250" width="70" height="26.87" as="geometry" />
        </mxCell>
        <mxCell id="z4wA7xu3LtJDyuMt949T-224" style="edgeStyle=elbowEdgeStyle;rounded=0;orthogonalLoop=1;jettySize=auto;html=1;exitX=1;exitY=0.5;exitDx=0;exitDy=0;entryX=0;entryY=0.5;entryDx=0;entryDy=0;entryPerimeter=0;endArrow=none;endFill=0;" parent="1" source="z4wA7xu3LtJDyuMt949T-169" target="z4wA7xu3LtJDyuMt949T-115" edge="1">
          <mxGeometry relative="1" as="geometry">
            <mxPoint x="369.9999999999998" y="310.4117647058823" as="targetPoint" />
          </mxGeometry>
        </mxCell>
        <mxCell id="z4wA7xu3LtJDyuMt949T-332" style="edgeStyle=none;rounded=0;orthogonalLoop=1;jettySize=auto;html=1;exitX=0;exitY=0.25;exitDx=0;exitDy=0;endArrow=none;endFill=0;" parent="1" source="z4wA7xu3LtJDyuMt949T-169" edge="1">
          <mxGeometry relative="1" as="geometry">
            <mxPoint x="20" y="303.57142857142856" as="targetPoint" />
          </mxGeometry>
        </mxCell>
        <mxCell id="z4wA7xu3LtJDyuMt949T-333" style="edgeStyle=none;rounded=0;orthogonalLoop=1;jettySize=auto;html=1;exitX=0;exitY=0.5;exitDx=0;exitDy=0;endArrow=none;endFill=0;" parent="1" source="z4wA7xu3LtJDyuMt949T-169" edge="1">
          <mxGeometry relative="1" as="geometry">
            <mxPoint x="60" y="310.42857142857144" as="targetPoint" />
          </mxGeometry>
        </mxCell>
        <mxCell id="z4wA7xu3LtJDyuMt949T-334" style="edgeStyle=none;rounded=0;orthogonalLoop=1;jettySize=auto;html=1;exitX=0;exitY=0.75;exitDx=0;exitDy=0;endArrow=none;endFill=0;" parent="1" source="z4wA7xu3LtJDyuMt949T-169" edge="1">
          <mxGeometry relative="1" as="geometry">
            <mxPoint x="100" y="317.28571428571433" as="targetPoint" />
          </mxGeometry>
        </mxCell>
        <mxCell id="z4wA7xu3LtJDyuMt949T-169" value="RGB" style="rounded=1;whiteSpace=wrap;html=1;" parent="1" vertex="1">
          <mxGeometry x="140" y="296.88" width="70" height="26.87" as="geometry" />
        </mxCell>
        <mxCell id="z4wA7xu3LtJDyuMt949T-225" style="edgeStyle=elbowEdgeStyle;rounded=0;orthogonalLoop=1;jettySize=auto;html=1;exitX=1;exitY=0.5;exitDx=0;exitDy=0;entryX=0;entryY=0.5;entryDx=0;entryDy=0;entryPerimeter=0;endArrow=none;endFill=0;" parent="1" source="z4wA7xu3LtJDyuMt949T-177" target="z4wA7xu3LtJDyuMt949T-117" edge="1">
          <mxGeometry relative="1" as="geometry">
            <mxPoint x="369.9999999999998" y="340" as="targetPoint" />
            <Array as="points">
              <mxPoint x="250" y="360" />
            </Array>
          </mxGeometry>
        </mxCell>
        <mxCell id="z4wA7xu3LtJDyuMt949T-335" style="edgeStyle=none;rounded=0;orthogonalLoop=1;jettySize=auto;html=1;exitX=0;exitY=0.25;exitDx=0;exitDy=0;endArrow=none;endFill=0;" parent="1" source="z4wA7xu3LtJDyuMt949T-177" edge="1">
          <mxGeometry relative="1" as="geometry">
            <mxPoint x="20" y="343.57142857142856" as="targetPoint" />
          </mxGeometry>
        </mxCell>
        <mxCell id="z4wA7xu3LtJDyuMt949T-336" style="edgeStyle=none;rounded=0;orthogonalLoop=1;jettySize=auto;html=1;exitX=0;exitY=0.5;exitDx=0;exitDy=0;endArrow=none;endFill=0;" parent="1" source="z4wA7xu3LtJDyuMt949T-177" edge="1">
          <mxGeometry relative="1" as="geometry">
            <mxPoint x="60" y="350.42857142857144" as="targetPoint" />
          </mxGeometry>
        </mxCell>
        <mxCell id="z4wA7xu3LtJDyuMt949T-337" style="edgeStyle=none;rounded=0;orthogonalLoop=1;jettySize=auto;html=1;exitX=0;exitY=0.75;exitDx=0;exitDy=0;endArrow=none;endFill=0;" parent="1" source="z4wA7xu3LtJDyuMt949T-177" edge="1">
          <mxGeometry relative="1" as="geometry">
            <mxPoint x="100" y="357.28571428571433" as="targetPoint" />
          </mxGeometry>
        </mxCell>
        <mxCell id="z4wA7xu3LtJDyuMt949T-177" value="RGB" style="rounded=1;whiteSpace=wrap;html=1;" parent="1" vertex="1">
          <mxGeometry x="140" y="336.88" width="70" height="26.87" as="geometry" />
        </mxCell>
        <mxCell id="z4wA7xu3LtJDyuMt949T-226" style="edgeStyle=elbowEdgeStyle;rounded=0;orthogonalLoop=1;jettySize=auto;html=1;exitX=1;exitY=0.5;exitDx=0;exitDy=0;entryX=0;entryY=0.5;entryDx=0;entryDy=0;entryPerimeter=0;endArrow=none;endFill=0;" parent="1" source="z4wA7xu3LtJDyuMt949T-178" target="z4wA7xu3LtJDyuMt949T-9" edge="1">
          <mxGeometry relative="1" as="geometry">
            <mxPoint x="369.9999999999998" y="370" as="targetPoint" />
            <Array as="points">
              <mxPoint x="260" y="390" />
            </Array>
          </mxGeometry>
        </mxCell>
        <mxCell id="z4wA7xu3LtJDyuMt949T-338" style="edgeStyle=none;rounded=0;orthogonalLoop=1;jettySize=auto;html=1;exitX=0;exitY=0.25;exitDx=0;exitDy=0;endArrow=none;endFill=0;" parent="1" source="z4wA7xu3LtJDyuMt949T-178" edge="1">
          <mxGeometry relative="1" as="geometry">
            <mxPoint x="20" y="383.57142857142856" as="targetPoint" />
          </mxGeometry>
        </mxCell>
        <mxCell id="z4wA7xu3LtJDyuMt949T-339" style="edgeStyle=none;rounded=0;orthogonalLoop=1;jettySize=auto;html=1;exitX=0;exitY=0.5;exitDx=0;exitDy=0;endArrow=none;endFill=0;" parent="1" source="z4wA7xu3LtJDyuMt949T-178" edge="1">
          <mxGeometry relative="1" as="geometry">
            <mxPoint x="60" y="390.42857142857144" as="targetPoint" />
          </mxGeometry>
        </mxCell>
        <mxCell id="z4wA7xu3LtJDyuMt949T-340" style="edgeStyle=none;rounded=0;orthogonalLoop=1;jettySize=auto;html=1;exitX=0;exitY=0.75;exitDx=0;exitDy=0;endArrow=none;endFill=0;" parent="1" source="z4wA7xu3LtJDyuMt949T-178" edge="1">
          <mxGeometry relative="1" as="geometry">
            <mxPoint x="100" y="397.28571428571433" as="targetPoint" />
          </mxGeometry>
        </mxCell>
        <mxCell id="z4wA7xu3LtJDyuMt949T-178" value="RGB" style="rounded=1;whiteSpace=wrap;html=1;" parent="1" vertex="1">
          <mxGeometry x="140" y="376.88" width="70" height="26.87" as="geometry" />
        </mxCell>
        <mxCell id="z4wA7xu3LtJDyuMt949T-341" style="edgeStyle=none;rounded=0;orthogonalLoop=1;jettySize=auto;html=1;exitX=0;exitY=0.25;exitDx=0;exitDy=0;endArrow=none;endFill=0;" parent="1" source="z4wA7xu3LtJDyuMt949T-179" edge="1">
          <mxGeometry relative="1" as="geometry">
            <mxPoint x="20" y="423.57142857142856" as="targetPoint" />
          </mxGeometry>
        </mxCell>
        <mxCell id="z4wA7xu3LtJDyuMt949T-342" style="edgeStyle=none;rounded=0;orthogonalLoop=1;jettySize=auto;html=1;exitX=0;exitY=0.5;exitDx=0;exitDy=0;endArrow=none;endFill=0;" parent="1" source="z4wA7xu3LtJDyuMt949T-179" edge="1">
          <mxGeometry relative="1" as="geometry">
            <mxPoint x="60" y="430.42857142857144" as="targetPoint" />
          </mxGeometry>
        </mxCell>
        <mxCell id="z4wA7xu3LtJDyuMt949T-343" style="edgeStyle=none;rounded=0;orthogonalLoop=1;jettySize=auto;html=1;exitX=0;exitY=0.75;exitDx=0;exitDy=0;endArrow=none;endFill=0;" parent="1" source="z4wA7xu3LtJDyuMt949T-179" edge="1">
          <mxGeometry relative="1" as="geometry">
            <mxPoint x="100" y="437.28571428571433" as="targetPoint" />
          </mxGeometry>
        </mxCell>
        <mxCell id="z4wA7xu3LtJDyuMt949T-179" value="RGB" style="rounded=1;whiteSpace=wrap;html=1;" parent="1" vertex="1">
          <mxGeometry x="140" y="416.88" width="70" height="26.87" as="geometry" />
        </mxCell>
        <mxCell id="z4wA7xu3LtJDyuMt949T-344" style="edgeStyle=none;rounded=0;orthogonalLoop=1;jettySize=auto;html=1;exitX=0;exitY=0.25;exitDx=0;exitDy=0;endArrow=none;endFill=0;" parent="1" source="z4wA7xu3LtJDyuMt949T-180" edge="1">
          <mxGeometry relative="1" as="geometry">
            <mxPoint x="20" y="463.57142857142856" as="targetPoint" />
          </mxGeometry>
        </mxCell>
        <mxCell id="z4wA7xu3LtJDyuMt949T-345" style="edgeStyle=none;rounded=0;orthogonalLoop=1;jettySize=auto;html=1;exitX=0;exitY=0.5;exitDx=0;exitDy=0;endArrow=none;endFill=0;" parent="1" source="z4wA7xu3LtJDyuMt949T-180" edge="1">
          <mxGeometry relative="1" as="geometry">
            <mxPoint x="60" y="470.42857142857144" as="targetPoint" />
          </mxGeometry>
        </mxCell>
        <mxCell id="z4wA7xu3LtJDyuMt949T-346" style="edgeStyle=none;rounded=0;orthogonalLoop=1;jettySize=auto;html=1;exitX=0;exitY=0.75;exitDx=0;exitDy=0;endArrow=none;endFill=0;" parent="1" source="z4wA7xu3LtJDyuMt949T-180" edge="1">
          <mxGeometry relative="1" as="geometry">
            <mxPoint x="100" y="477.28571428571433" as="targetPoint" />
          </mxGeometry>
        </mxCell>
        <mxCell id="z4wA7xu3LtJDyuMt949T-180" value="RGB" style="rounded=1;whiteSpace=wrap;html=1;" parent="1" vertex="1">
          <mxGeometry x="140" y="456.88" width="70" height="26.87" as="geometry" />
        </mxCell>
        <mxCell id="z4wA7xu3LtJDyuMt949T-229" style="edgeStyle=elbowEdgeStyle;rounded=0;orthogonalLoop=1;jettySize=auto;html=1;exitX=1;exitY=0.5;exitDx=0;exitDy=0;entryX=0;entryY=0.5;entryDx=0;entryDy=0;entryPerimeter=0;endArrow=none;endFill=0;" parent="1" source="z4wA7xu3LtJDyuMt949T-181" target="z4wA7xu3LtJDyuMt949T-162" edge="1">
          <mxGeometry relative="1" as="geometry">
            <mxPoint x="369.9999999999998" y="460" as="targetPoint" />
            <Array as="points">
              <mxPoint x="290" y="490" />
            </Array>
          </mxGeometry>
        </mxCell>
        <mxCell id="z4wA7xu3LtJDyuMt949T-347" style="edgeStyle=none;rounded=0;orthogonalLoop=1;jettySize=auto;html=1;exitX=0;exitY=0.25;exitDx=0;exitDy=0;endArrow=none;endFill=0;" parent="1" source="z4wA7xu3LtJDyuMt949T-181" edge="1">
          <mxGeometry relative="1" as="geometry">
            <mxPoint x="20" y="503.57142857142856" as="targetPoint" />
          </mxGeometry>
        </mxCell>
        <mxCell id="z4wA7xu3LtJDyuMt949T-348" style="edgeStyle=none;rounded=0;orthogonalLoop=1;jettySize=auto;html=1;exitX=0;exitY=0.5;exitDx=0;exitDy=0;endArrow=none;endFill=0;" parent="1" source="z4wA7xu3LtJDyuMt949T-181" edge="1">
          <mxGeometry relative="1" as="geometry">
            <mxPoint x="60" y="510.42857142857144" as="targetPoint" />
          </mxGeometry>
        </mxCell>
        <mxCell id="z4wA7xu3LtJDyuMt949T-349" style="edgeStyle=none;rounded=0;orthogonalLoop=1;jettySize=auto;html=1;exitX=0;exitY=0.75;exitDx=0;exitDy=0;endArrow=none;endFill=0;" parent="1" source="z4wA7xu3LtJDyuMt949T-181" edge="1">
          <mxGeometry relative="1" as="geometry">
            <mxPoint x="100" y="517.2857142857143" as="targetPoint" />
          </mxGeometry>
        </mxCell>
        <mxCell id="z4wA7xu3LtJDyuMt949T-181" value="RGB" style="rounded=1;whiteSpace=wrap;html=1;" parent="1" vertex="1">
          <mxGeometry x="140" y="496.88" width="70" height="26.87" as="geometry" />
        </mxCell>
        <mxCell id="z4wA7xu3LtJDyuMt949T-230" style="edgeStyle=elbowEdgeStyle;rounded=0;orthogonalLoop=1;jettySize=auto;html=1;exitX=1;exitY=0.5;exitDx=0;exitDy=0;entryX=0;entryY=0.5;entryDx=0;entryDy=0;entryPerimeter=0;endArrow=none;endFill=0;" parent="1" source="z4wA7xu3LtJDyuMt949T-183" target="z4wA7xu3LtJDyuMt949T-112" edge="1">
          <mxGeometry relative="1" as="geometry">
            <mxPoint x="369.9999999999998" y="490" as="targetPoint" />
            <Array as="points">
              <mxPoint x="300" y="520" />
            </Array>
          </mxGeometry>
        </mxCell>
        <mxCell id="z4wA7xu3LtJDyuMt949T-350" style="edgeStyle=none;rounded=0;orthogonalLoop=1;jettySize=auto;html=1;exitX=0;exitY=0.25;exitDx=0;exitDy=0;endArrow=none;endFill=0;" parent="1" source="z4wA7xu3LtJDyuMt949T-183" edge="1">
          <mxGeometry relative="1" as="geometry">
            <mxPoint x="20" y="543.5714285714286" as="targetPoint" />
          </mxGeometry>
        </mxCell>
        <mxCell id="z4wA7xu3LtJDyuMt949T-351" style="edgeStyle=none;rounded=0;orthogonalLoop=1;jettySize=auto;html=1;exitX=0;exitY=0.5;exitDx=0;exitDy=0;endArrow=none;endFill=0;" parent="1" source="z4wA7xu3LtJDyuMt949T-183" edge="1">
          <mxGeometry relative="1" as="geometry">
            <mxPoint x="60" y="550.4285714285714" as="targetPoint" />
          </mxGeometry>
        </mxCell>
        <mxCell id="z4wA7xu3LtJDyuMt949T-352" style="edgeStyle=none;rounded=0;orthogonalLoop=1;jettySize=auto;html=1;exitX=0;exitY=0.75;exitDx=0;exitDy=0;endArrow=none;endFill=0;" parent="1" source="z4wA7xu3LtJDyuMt949T-183" edge="1">
          <mxGeometry relative="1" as="geometry">
            <mxPoint x="100" y="557.2857142857143" as="targetPoint" />
          </mxGeometry>
        </mxCell>
        <mxCell id="z4wA7xu3LtJDyuMt949T-183" value="RGB" style="rounded=1;whiteSpace=wrap;html=1;" parent="1" vertex="1">
          <mxGeometry x="140" y="536.88" width="70" height="26.87" as="geometry" />
        </mxCell>
        <mxCell id="z4wA7xu3LtJDyuMt949T-231" style="edgeStyle=elbowEdgeStyle;rounded=0;orthogonalLoop=1;jettySize=auto;html=1;exitX=1;exitY=0.5;exitDx=0;exitDy=0;entryX=0;entryY=0.5;entryDx=0;entryDy=0;entryPerimeter=0;endArrow=none;endFill=0;" parent="1" source="z4wA7xu3LtJDyuMt949T-184" target="z4wA7xu3LtJDyuMt949T-111" edge="1">
          <mxGeometry relative="1" as="geometry">
            <mxPoint x="369.9999999999998" y="520" as="targetPoint" />
            <Array as="points">
              <mxPoint x="310" y="560" />
            </Array>
          </mxGeometry>
        </mxCell>
        <mxCell id="z4wA7xu3LtJDyuMt949T-353" style="edgeStyle=none;rounded=0;orthogonalLoop=1;jettySize=auto;html=1;exitX=0;exitY=0.25;exitDx=0;exitDy=0;endArrow=none;endFill=0;" parent="1" source="z4wA7xu3LtJDyuMt949T-184" edge="1">
          <mxGeometry relative="1" as="geometry">
            <mxPoint x="20" y="583.5714285714286" as="targetPoint" />
          </mxGeometry>
        </mxCell>
        <mxCell id="z4wA7xu3LtJDyuMt949T-354" style="edgeStyle=none;rounded=0;orthogonalLoop=1;jettySize=auto;html=1;exitX=0;exitY=0.5;exitDx=0;exitDy=0;endArrow=none;endFill=0;" parent="1" source="z4wA7xu3LtJDyuMt949T-184" edge="1">
          <mxGeometry relative="1" as="geometry">
            <mxPoint x="60" y="590.4285714285714" as="targetPoint" />
          </mxGeometry>
        </mxCell>
        <mxCell id="z4wA7xu3LtJDyuMt949T-355" style="edgeStyle=none;rounded=0;orthogonalLoop=1;jettySize=auto;html=1;exitX=0;exitY=0.75;exitDx=0;exitDy=0;endArrow=none;endFill=0;" parent="1" source="z4wA7xu3LtJDyuMt949T-184" edge="1">
          <mxGeometry relative="1" as="geometry">
            <mxPoint x="100" y="597.2857142857143" as="targetPoint" />
          </mxGeometry>
        </mxCell>
        <mxCell id="z4wA7xu3LtJDyuMt949T-184" value="RGB" style="rounded=1;whiteSpace=wrap;html=1;" parent="1" vertex="1">
          <mxGeometry x="140" y="576.87" width="70" height="26.87" as="geometry" />
        </mxCell>
        <mxCell id="z4wA7xu3LtJDyuMt949T-232" style="edgeStyle=elbowEdgeStyle;rounded=0;orthogonalLoop=1;jettySize=auto;html=1;exitX=1;exitY=0.5;exitDx=0;exitDy=0;entryX=0;entryY=0.5;entryDx=0;entryDy=0;entryPerimeter=0;endArrow=none;endFill=0;" parent="1" source="z4wA7xu3LtJDyuMt949T-185" target="z4wA7xu3LtJDyuMt949T-108" edge="1">
          <mxGeometry relative="1" as="geometry">
            <mxPoint x="369.9999999999998" y="550" as="targetPoint" />
            <Array as="points">
              <mxPoint x="320" y="590" />
            </Array>
          </mxGeometry>
        </mxCell>
        <mxCell id="z4wA7xu3LtJDyuMt949T-356" style="edgeStyle=none;rounded=0;orthogonalLoop=1;jettySize=auto;html=1;exitX=0;exitY=0.25;exitDx=0;exitDy=0;endArrow=none;endFill=0;" parent="1" source="z4wA7xu3LtJDyuMt949T-185" edge="1">
          <mxGeometry relative="1" as="geometry">
            <mxPoint x="20" y="620.7142857142857" as="targetPoint" />
          </mxGeometry>
        </mxCell>
        <mxCell id="z4wA7xu3LtJDyuMt949T-357" style="edgeStyle=none;rounded=0;orthogonalLoop=1;jettySize=auto;html=1;exitX=0;exitY=0.5;exitDx=0;exitDy=0;endArrow=none;endFill=0;" parent="1" source="z4wA7xu3LtJDyuMt949T-185" edge="1">
          <mxGeometry relative="1" as="geometry">
            <mxPoint x="60" y="627" as="targetPoint" />
          </mxGeometry>
        </mxCell>
        <mxCell id="z4wA7xu3LtJDyuMt949T-358" style="edgeStyle=none;rounded=0;orthogonalLoop=1;jettySize=auto;html=1;exitX=0;exitY=0.75;exitDx=0;exitDy=0;endArrow=none;endFill=0;" parent="1" source="z4wA7xu3LtJDyuMt949T-185" edge="1">
          <mxGeometry relative="1" as="geometry">
            <mxPoint x="100" y="633.8571428571429" as="targetPoint" />
          </mxGeometry>
        </mxCell>
        <mxCell id="z4wA7xu3LtJDyuMt949T-185" value="RGB" style="rounded=1;whiteSpace=wrap;html=1;" parent="1" vertex="1">
          <mxGeometry x="140" y="613.74" width="70" height="26.87" as="geometry" />
        </mxCell>
        <mxCell id="z4wA7xu3LtJDyuMt949T-233" style="edgeStyle=elbowEdgeStyle;rounded=0;orthogonalLoop=1;jettySize=auto;html=1;exitX=1;exitY=0.5;exitDx=0;exitDy=0;entryX=0;entryY=0.5;entryDx=0;entryDy=0;entryPerimeter=0;endArrow=none;endFill=0;" parent="1" source="z4wA7xu3LtJDyuMt949T-186" target="z4wA7xu3LtJDyuMt949T-109" edge="1">
          <mxGeometry relative="1" as="geometry">
            <mxPoint x="369.9999999999998" y="580" as="targetPoint" />
            <Array as="points">
              <mxPoint x="330" y="620" />
            </Array>
          </mxGeometry>
        </mxCell>
        <mxCell id="z4wA7xu3LtJDyuMt949T-359" style="edgeStyle=none;rounded=0;orthogonalLoop=1;jettySize=auto;html=1;exitX=0;exitY=0.25;exitDx=0;exitDy=0;endArrow=none;endFill=0;" parent="1" source="z4wA7xu3LtJDyuMt949T-186" edge="1">
          <mxGeometry relative="1" as="geometry">
            <mxPoint x="20" y="660.7142857142857" as="targetPoint" />
          </mxGeometry>
        </mxCell>
        <mxCell id="z4wA7xu3LtJDyuMt949T-360" style="edgeStyle=none;rounded=0;orthogonalLoop=1;jettySize=auto;html=1;exitX=0;exitY=0.5;exitDx=0;exitDy=0;endArrow=none;endFill=0;" parent="1" source="z4wA7xu3LtJDyuMt949T-186" edge="1">
          <mxGeometry relative="1" as="geometry">
            <mxPoint x="60" y="667" as="targetPoint" />
          </mxGeometry>
        </mxCell>
        <mxCell id="z4wA7xu3LtJDyuMt949T-361" style="edgeStyle=none;rounded=0;orthogonalLoop=1;jettySize=auto;html=1;exitX=0;exitY=0.75;exitDx=0;exitDy=0;endArrow=none;endFill=0;" parent="1" source="z4wA7xu3LtJDyuMt949T-186" edge="1">
          <mxGeometry relative="1" as="geometry">
            <mxPoint x="100" y="673.8571428571429" as="targetPoint" />
          </mxGeometry>
        </mxCell>
        <mxCell id="z4wA7xu3LtJDyuMt949T-186" value="RGB" style="rounded=1;whiteSpace=wrap;html=1;" parent="1" vertex="1">
          <mxGeometry x="140" y="653.74" width="70" height="26.87" as="geometry" />
        </mxCell>
        <mxCell id="z4wA7xu3LtJDyuMt949T-362" style="edgeStyle=none;rounded=0;orthogonalLoop=1;jettySize=auto;html=1;exitX=0;exitY=0.25;exitDx=0;exitDy=0;endArrow=none;endFill=0;" parent="1" source="z4wA7xu3LtJDyuMt949T-187" edge="1">
          <mxGeometry relative="1" as="geometry">
            <mxPoint x="20" y="700.7142857142858" as="targetPoint" />
          </mxGeometry>
        </mxCell>
        <mxCell id="z4wA7xu3LtJDyuMt949T-364" style="edgeStyle=none;rounded=0;orthogonalLoop=1;jettySize=auto;html=1;exitX=0;exitY=0.5;exitDx=0;exitDy=0;endArrow=none;endFill=0;" parent="1" source="z4wA7xu3LtJDyuMt949T-187" edge="1">
          <mxGeometry relative="1" as="geometry">
            <mxPoint x="60" y="707" as="targetPoint" />
          </mxGeometry>
        </mxCell>
        <mxCell id="z4wA7xu3LtJDyuMt949T-365" style="edgeStyle=none;rounded=0;orthogonalLoop=1;jettySize=auto;html=1;exitX=0;exitY=0.75;exitDx=0;exitDy=0;endArrow=none;endFill=0;" parent="1" source="z4wA7xu3LtJDyuMt949T-187" edge="1">
          <mxGeometry relative="1" as="geometry">
            <mxPoint x="100" y="713.8571428571429" as="targetPoint" />
          </mxGeometry>
        </mxCell>
        <mxCell id="z4wA7xu3LtJDyuMt949T-187" value="RGB" style="rounded=1;whiteSpace=wrap;html=1;" parent="1" vertex="1">
          <mxGeometry x="140" y="693.74" width="70" height="26.87" as="geometry" />
        </mxCell>
        <mxCell id="z4wA7xu3LtJDyuMt949T-366" style="edgeStyle=none;rounded=0;orthogonalLoop=1;jettySize=auto;html=1;exitX=0;exitY=0.25;exitDx=0;exitDy=0;endArrow=none;endFill=0;" parent="1" source="z4wA7xu3LtJDyuMt949T-188" edge="1">
          <mxGeometry relative="1" as="geometry">
            <mxPoint x="20" y="740.7142857142858" as="targetPoint" />
          </mxGeometry>
        </mxCell>
        <mxCell id="z4wA7xu3LtJDyuMt949T-367" style="edgeStyle=none;rounded=0;orthogonalLoop=1;jettySize=auto;html=1;exitX=0;exitY=0.5;exitDx=0;exitDy=0;endArrow=none;endFill=0;" parent="1" source="z4wA7xu3LtJDyuMt949T-188" edge="1">
          <mxGeometry relative="1" as="geometry">
            <mxPoint x="60" y="747" as="targetPoint" />
          </mxGeometry>
        </mxCell>
        <mxCell id="z4wA7xu3LtJDyuMt949T-368" style="edgeStyle=none;rounded=0;orthogonalLoop=1;jettySize=auto;html=1;exitX=0;exitY=0.75;exitDx=0;exitDy=0;endArrow=none;endFill=0;" parent="1" source="z4wA7xu3LtJDyuMt949T-188" edge="1">
          <mxGeometry relative="1" as="geometry">
            <mxPoint x="100" y="753.8571428571429" as="targetPoint" />
          </mxGeometry>
        </mxCell>
        <mxCell id="z4wA7xu3LtJDyuMt949T-188" value="RGB" style="rounded=1;whiteSpace=wrap;html=1;" parent="1" vertex="1">
          <mxGeometry x="140" y="733.74" width="70" height="26.87" as="geometry" />
        </mxCell>
        <mxCell id="z4wA7xu3LtJDyuMt949T-218" style="edgeStyle=elbowEdgeStyle;rounded=0;orthogonalLoop=1;jettySize=auto;html=1;exitX=1;exitY=0.5;exitDx=0;exitDy=0;entryX=0;entryY=0.5;entryDx=0;entryDy=0;entryPerimeter=0;endArrow=none;endFill=0;" parent="1" source="z4wA7xu3LtJDyuMt949T-164" target="z4wA7xu3LtJDyuMt949T-113" edge="1">
          <mxGeometry relative="1" as="geometry">
            <Array as="points">
              <mxPoint x="230" y="240" />
            </Array>
          </mxGeometry>
        </mxCell>
        <mxCell id="z4wA7xu3LtJDyuMt949T-234" value="" style="edgeStyle=elbowEdgeStyle;rounded=0;orthogonalLoop=1;jettySize=auto;html=1;endArrow=none;endFill=0;" parent="1" source="z4wA7xu3LtJDyuMt949T-191" target="z4wA7xu3LtJDyuMt949T-103" edge="1">
          <mxGeometry relative="1" as="geometry">
            <Array as="points">
              <mxPoint x="700" y="230" />
            </Array>
          </mxGeometry>
        </mxCell>
        <mxCell id="z4wA7xu3LtJDyuMt949T-287" style="edgeStyle=orthogonalEdgeStyle;rounded=0;orthogonalLoop=1;jettySize=auto;html=1;exitX=1;exitY=0.75;exitDx=0;exitDy=0;endArrow=none;endFill=0;" parent="1" source="z4wA7xu3LtJDyuMt949T-191" edge="1">
          <mxGeometry relative="1" as="geometry">
            <mxPoint x="810" y="230.42857142857144" as="targetPoint" />
          </mxGeometry>
        </mxCell>
        <mxCell id="z4wA7xu3LtJDyuMt949T-288" style="edgeStyle=orthogonalEdgeStyle;rounded=0;orthogonalLoop=1;jettySize=auto;html=1;exitX=1;exitY=0.5;exitDx=0;exitDy=0;endArrow=none;endFill=0;" parent="1" source="z4wA7xu3LtJDyuMt949T-191" edge="1">
          <mxGeometry relative="1" as="geometry">
            <mxPoint x="840" y="223.57142857142856" as="targetPoint" />
          </mxGeometry>
        </mxCell>
        <mxCell id="z4wA7xu3LtJDyuMt949T-289" style="edgeStyle=orthogonalEdgeStyle;rounded=0;orthogonalLoop=1;jettySize=auto;html=1;exitX=1;exitY=0.25;exitDx=0;exitDy=0;endArrow=none;endFill=0;" parent="1" source="z4wA7xu3LtJDyuMt949T-191" edge="1">
          <mxGeometry relative="1" as="geometry">
            <mxPoint x="870" y="216.71428571428567" as="targetPoint" />
          </mxGeometry>
        </mxCell>
        <mxCell id="z4wA7xu3LtJDyuMt949T-191" value="RGB" style="rounded=1;whiteSpace=wrap;html=1;" parent="1" vertex="1">
          <mxGeometry x="720.1" y="210" width="70" height="26.87" as="geometry" />
        </mxCell>
        <mxCell id="z4wA7xu3LtJDyuMt949T-236" style="edgeStyle=elbowEdgeStyle;rounded=0;orthogonalLoop=1;jettySize=auto;html=1;exitX=0;exitY=0.5;exitDx=0;exitDy=0;" parent="1" source="z4wA7xu3LtJDyuMt949T-192" edge="1">
          <mxGeometry relative="1" as="geometry">
            <mxPoint x="529.9999999999998" y="280" as="targetPoint" />
            <Array as="points">
              <mxPoint x="690" y="270" />
            </Array>
          </mxGeometry>
        </mxCell>
        <mxCell id="z4wA7xu3LtJDyuMt949T-284" style="edgeStyle=orthogonalEdgeStyle;rounded=0;orthogonalLoop=1;jettySize=auto;html=1;exitX=1;exitY=0.25;exitDx=0;exitDy=0;endArrow=none;endFill=0;" parent="1" source="z4wA7xu3LtJDyuMt949T-192" edge="1">
          <mxGeometry relative="1" as="geometry">
            <mxPoint x="870" y="256.71428571428567" as="targetPoint" />
          </mxGeometry>
        </mxCell>
        <mxCell id="z4wA7xu3LtJDyuMt949T-285" style="edgeStyle=orthogonalEdgeStyle;rounded=0;orthogonalLoop=1;jettySize=auto;html=1;exitX=1;exitY=0.5;exitDx=0;exitDy=0;endArrow=none;endFill=0;" parent="1" source="z4wA7xu3LtJDyuMt949T-192" edge="1">
          <mxGeometry relative="1" as="geometry">
            <mxPoint x="840" y="263.57142857142856" as="targetPoint" />
          </mxGeometry>
        </mxCell>
        <mxCell id="z4wA7xu3LtJDyuMt949T-286" style="edgeStyle=orthogonalEdgeStyle;rounded=0;orthogonalLoop=1;jettySize=auto;html=1;exitX=1;exitY=0.75;exitDx=0;exitDy=0;endArrow=none;endFill=0;" parent="1" source="z4wA7xu3LtJDyuMt949T-192" edge="1">
          <mxGeometry relative="1" as="geometry">
            <mxPoint x="810" y="270.42857142857144" as="targetPoint" />
          </mxGeometry>
        </mxCell>
        <mxCell id="z4wA7xu3LtJDyuMt949T-192" value="RGB" style="rounded=1;whiteSpace=wrap;html=1;" parent="1" vertex="1">
          <mxGeometry x="720.1" y="250" width="70" height="26.87" as="geometry" />
        </mxCell>
        <mxCell id="z4wA7xu3LtJDyuMt949T-238" style="edgeStyle=elbowEdgeStyle;rounded=0;orthogonalLoop=1;jettySize=auto;html=1;exitX=0;exitY=0.5;exitDx=0;exitDy=0;" parent="1" source="z4wA7xu3LtJDyuMt949T-193" edge="1">
          <mxGeometry relative="1" as="geometry">
            <mxPoint x="529.9999999999998" y="310" as="targetPoint" />
            <Array as="points">
              <mxPoint x="670" y="310" />
            </Array>
          </mxGeometry>
        </mxCell>
        <mxCell id="z4wA7xu3LtJDyuMt949T-290" style="edgeStyle=orthogonalEdgeStyle;rounded=0;orthogonalLoop=1;jettySize=auto;html=1;exitX=1;exitY=0.25;exitDx=0;exitDy=0;endArrow=none;endFill=0;" parent="1" source="z4wA7xu3LtJDyuMt949T-193" edge="1">
          <mxGeometry relative="1" as="geometry">
            <mxPoint x="870" y="303.57142857142856" as="targetPoint" />
          </mxGeometry>
        </mxCell>
        <mxCell id="z4wA7xu3LtJDyuMt949T-291" style="edgeStyle=none;rounded=0;orthogonalLoop=1;jettySize=auto;html=1;exitX=1;exitY=0.5;exitDx=0;exitDy=0;endArrow=none;endFill=0;" parent="1" source="z4wA7xu3LtJDyuMt949T-193" edge="1">
          <mxGeometry relative="1" as="geometry">
            <mxPoint x="840" y="310" as="targetPoint" />
          </mxGeometry>
        </mxCell>
        <mxCell id="z4wA7xu3LtJDyuMt949T-292" style="edgeStyle=none;rounded=0;orthogonalLoop=1;jettySize=auto;html=1;exitX=1;exitY=0.75;exitDx=0;exitDy=0;endArrow=none;endFill=0;" parent="1" source="z4wA7xu3LtJDyuMt949T-193" edge="1">
          <mxGeometry relative="1" as="geometry">
            <mxPoint x="810" y="317.28571428571433" as="targetPoint" />
          </mxGeometry>
        </mxCell>
        <mxCell id="z4wA7xu3LtJDyuMt949T-193" value="RGB" style="rounded=1;whiteSpace=wrap;html=1;" parent="1" vertex="1">
          <mxGeometry x="720.1" y="296.88" width="70" height="26.87" as="geometry" />
        </mxCell>
        <mxCell id="z4wA7xu3LtJDyuMt949T-239" style="edgeStyle=elbowEdgeStyle;rounded=0;orthogonalLoop=1;jettySize=auto;html=1;exitX=0;exitY=0.5;exitDx=0;exitDy=0;endArrow=none;endFill=0;" parent="1" source="z4wA7xu3LtJDyuMt949T-194" edge="1">
          <mxGeometry relative="1" as="geometry">
            <mxPoint x="539.9999999999998" y="339.82352941176475" as="targetPoint" />
            <Array as="points">
              <mxPoint x="680" y="340" />
            </Array>
          </mxGeometry>
        </mxCell>
        <mxCell id="z4wA7xu3LtJDyuMt949T-293" style="edgeStyle=none;rounded=0;orthogonalLoop=1;jettySize=auto;html=1;exitX=1;exitY=0.25;exitDx=0;exitDy=0;endArrow=none;endFill=0;" parent="1" source="z4wA7xu3LtJDyuMt949T-194" edge="1">
          <mxGeometry relative="1" as="geometry">
            <mxPoint x="870" y="347" as="targetPoint" />
          </mxGeometry>
        </mxCell>
        <mxCell id="z4wA7xu3LtJDyuMt949T-294" style="edgeStyle=none;rounded=0;orthogonalLoop=1;jettySize=auto;html=1;exitX=1;exitY=0.5;exitDx=0;exitDy=0;endArrow=none;endFill=0;" parent="1" source="z4wA7xu3LtJDyuMt949T-194" edge="1">
          <mxGeometry relative="1" as="geometry">
            <mxPoint x="840" y="353.28571428571433" as="targetPoint" />
          </mxGeometry>
        </mxCell>
        <mxCell id="z4wA7xu3LtJDyuMt949T-295" style="edgeStyle=none;rounded=0;orthogonalLoop=1;jettySize=auto;html=1;exitX=1;exitY=0.75;exitDx=0;exitDy=0;endArrow=none;endFill=0;" parent="1" source="z4wA7xu3LtJDyuMt949T-194" edge="1">
          <mxGeometry relative="1" as="geometry">
            <mxPoint x="810" y="360.1428571428571" as="targetPoint" />
          </mxGeometry>
        </mxCell>
        <mxCell id="z4wA7xu3LtJDyuMt949T-194" value="RGB" style="rounded=1;whiteSpace=wrap;html=1;" parent="1" vertex="1">
          <mxGeometry x="720.1" y="340" width="70" height="26.87" as="geometry" />
        </mxCell>
        <mxCell id="z4wA7xu3LtJDyuMt949T-240" style="edgeStyle=elbowEdgeStyle;rounded=0;orthogonalLoop=1;jettySize=auto;html=1;exitX=0;exitY=0.5;exitDx=0;exitDy=0;endArrow=none;endFill=0;" parent="1" source="z4wA7xu3LtJDyuMt949T-195" edge="1">
          <mxGeometry relative="1" as="geometry">
            <mxPoint x="539.9999999999998" y="370" as="targetPoint" />
            <Array as="points">
              <mxPoint x="670" y="380" />
            </Array>
          </mxGeometry>
        </mxCell>
        <mxCell id="z4wA7xu3LtJDyuMt949T-296" style="edgeStyle=none;rounded=0;orthogonalLoop=1;jettySize=auto;html=1;exitX=1;exitY=0.25;exitDx=0;exitDy=0;endArrow=none;endFill=0;" parent="1" source="z4wA7xu3LtJDyuMt949T-195" edge="1">
          <mxGeometry relative="1" as="geometry">
            <mxPoint x="870" y="383.57142857142856" as="targetPoint" />
          </mxGeometry>
        </mxCell>
        <mxCell id="z4wA7xu3LtJDyuMt949T-297" style="edgeStyle=none;rounded=0;orthogonalLoop=1;jettySize=auto;html=1;exitX=1;exitY=0.5;exitDx=0;exitDy=0;endArrow=none;endFill=0;" parent="1" source="z4wA7xu3LtJDyuMt949T-195" edge="1">
          <mxGeometry relative="1" as="geometry">
            <mxPoint x="840" y="390.42857142857144" as="targetPoint" />
          </mxGeometry>
        </mxCell>
        <mxCell id="z4wA7xu3LtJDyuMt949T-298" style="edgeStyle=none;rounded=0;orthogonalLoop=1;jettySize=auto;html=1;exitX=1;exitY=0.75;exitDx=0;exitDy=0;endArrow=none;endFill=0;" parent="1" source="z4wA7xu3LtJDyuMt949T-195" edge="1">
          <mxGeometry relative="1" as="geometry">
            <mxPoint x="810" y="397.28571428571433" as="targetPoint" />
          </mxGeometry>
        </mxCell>
        <mxCell id="z4wA7xu3LtJDyuMt949T-195" value="RGB" style="rounded=1;whiteSpace=wrap;html=1;" parent="1" vertex="1">
          <mxGeometry x="720.1" y="376.88" width="70" height="26.87" as="geometry" />
        </mxCell>
        <mxCell id="z4wA7xu3LtJDyuMt949T-241" style="edgeStyle=elbowEdgeStyle;rounded=0;orthogonalLoop=1;jettySize=auto;html=1;exitX=0;exitY=0.5;exitDx=0;exitDy=0;endArrow=none;endFill=0;" parent="1" source="z4wA7xu3LtJDyuMt949T-196" edge="1">
          <mxGeometry relative="1" as="geometry">
            <mxPoint x="539.9999999999998" y="400" as="targetPoint" />
            <Array as="points">
              <mxPoint x="660" y="410" />
            </Array>
          </mxGeometry>
        </mxCell>
        <mxCell id="z4wA7xu3LtJDyuMt949T-299" style="edgeStyle=none;rounded=0;orthogonalLoop=1;jettySize=auto;html=1;exitX=1;exitY=0.25;exitDx=0;exitDy=0;endArrow=none;endFill=0;" parent="1" source="z4wA7xu3LtJDyuMt949T-196" edge="1">
          <mxGeometry relative="1" as="geometry">
            <mxPoint x="870" y="423.57142857142856" as="targetPoint" />
          </mxGeometry>
        </mxCell>
        <mxCell id="z4wA7xu3LtJDyuMt949T-300" style="edgeStyle=none;rounded=0;orthogonalLoop=1;jettySize=auto;html=1;exitX=1;exitY=0.5;exitDx=0;exitDy=0;endArrow=none;endFill=0;" parent="1" source="z4wA7xu3LtJDyuMt949T-196" edge="1">
          <mxGeometry relative="1" as="geometry">
            <mxPoint x="840" y="430.42857142857144" as="targetPoint" />
          </mxGeometry>
        </mxCell>
        <mxCell id="z4wA7xu3LtJDyuMt949T-301" style="edgeStyle=none;rounded=0;orthogonalLoop=1;jettySize=auto;html=1;exitX=1;exitY=0.75;exitDx=0;exitDy=0;endArrow=none;endFill=0;" parent="1" source="z4wA7xu3LtJDyuMt949T-196" edge="1">
          <mxGeometry relative="1" as="geometry">
            <mxPoint x="810" y="437.28571428571433" as="targetPoint" />
          </mxGeometry>
        </mxCell>
        <mxCell id="z4wA7xu3LtJDyuMt949T-196" value="RGB" style="rounded=1;whiteSpace=wrap;html=1;" parent="1" vertex="1">
          <mxGeometry x="720.1" y="416.88" width="70" height="26.87" as="geometry" />
        </mxCell>
        <mxCell id="z4wA7xu3LtJDyuMt949T-243" style="edgeStyle=elbowEdgeStyle;rounded=0;orthogonalLoop=1;jettySize=auto;html=1;exitX=0;exitY=0.5;exitDx=0;exitDy=0;endArrow=none;endFill=0;" parent="1" source="z4wA7xu3LtJDyuMt949T-197" edge="1">
          <mxGeometry relative="1" as="geometry">
            <mxPoint x="539.9999999999998" y="430" as="targetPoint" />
            <Array as="points">
              <mxPoint x="650" y="450" />
            </Array>
          </mxGeometry>
        </mxCell>
        <mxCell id="z4wA7xu3LtJDyuMt949T-302" style="edgeStyle=none;rounded=0;orthogonalLoop=1;jettySize=auto;html=1;exitX=1;exitY=0.25;exitDx=0;exitDy=0;endArrow=none;endFill=0;" parent="1" source="z4wA7xu3LtJDyuMt949T-197" edge="1">
          <mxGeometry relative="1" as="geometry">
            <mxPoint x="870" y="461.8571428571429" as="targetPoint" />
          </mxGeometry>
        </mxCell>
        <mxCell id="z4wA7xu3LtJDyuMt949T-303" style="edgeStyle=none;rounded=0;orthogonalLoop=1;jettySize=auto;html=1;exitX=1;exitY=0.5;exitDx=0;exitDy=0;endArrow=none;endFill=0;" parent="1" source="z4wA7xu3LtJDyuMt949T-197" edge="1">
          <mxGeometry relative="1" as="geometry">
            <mxPoint x="840" y="468.71428571428567" as="targetPoint" />
          </mxGeometry>
        </mxCell>
        <mxCell id="z4wA7xu3LtJDyuMt949T-304" style="edgeStyle=none;rounded=0;orthogonalLoop=1;jettySize=auto;html=1;exitX=1;exitY=0.75;exitDx=0;exitDy=0;endArrow=none;endFill=0;" parent="1" source="z4wA7xu3LtJDyuMt949T-197" edge="1">
          <mxGeometry relative="1" as="geometry">
            <mxPoint x="810" y="475.57142857142856" as="targetPoint" />
          </mxGeometry>
        </mxCell>
        <mxCell id="z4wA7xu3LtJDyuMt949T-197" value="RGB" style="rounded=1;whiteSpace=wrap;html=1;" parent="1" vertex="1">
          <mxGeometry x="720.1" y="455.31" width="70" height="26.87" as="geometry" />
        </mxCell>
        <mxCell id="z4wA7xu3LtJDyuMt949T-244" style="edgeStyle=elbowEdgeStyle;rounded=0;orthogonalLoop=1;jettySize=auto;html=1;exitX=0;exitY=0.5;exitDx=0;exitDy=0;endArrow=none;endFill=0;" parent="1" source="z4wA7xu3LtJDyuMt949T-198" edge="1">
          <mxGeometry relative="1" as="geometry">
            <mxPoint x="539.9999999999998" y="460" as="targetPoint" />
            <Array as="points">
              <mxPoint x="640" y="490" />
            </Array>
          </mxGeometry>
        </mxCell>
        <mxCell id="z4wA7xu3LtJDyuMt949T-305" style="edgeStyle=none;rounded=0;orthogonalLoop=1;jettySize=auto;html=1;exitX=1;exitY=0.25;exitDx=0;exitDy=0;endArrow=none;endFill=0;" parent="1" source="z4wA7xu3LtJDyuMt949T-198" edge="1">
          <mxGeometry relative="1" as="geometry">
            <mxPoint x="870" y="503.57142857142856" as="targetPoint" />
          </mxGeometry>
        </mxCell>
        <mxCell id="z4wA7xu3LtJDyuMt949T-306" style="edgeStyle=none;rounded=0;orthogonalLoop=1;jettySize=auto;html=1;exitX=1;exitY=0.5;exitDx=0;exitDy=0;endArrow=none;endFill=0;" parent="1" source="z4wA7xu3LtJDyuMt949T-198" edge="1">
          <mxGeometry relative="1" as="geometry">
            <mxPoint x="840" y="510.42857142857144" as="targetPoint" />
          </mxGeometry>
        </mxCell>
        <mxCell id="z4wA7xu3LtJDyuMt949T-307" style="edgeStyle=none;rounded=0;orthogonalLoop=1;jettySize=auto;html=1;exitX=1;exitY=0.75;exitDx=0;exitDy=0;endArrow=none;endFill=0;" parent="1" source="z4wA7xu3LtJDyuMt949T-198" edge="1">
          <mxGeometry relative="1" as="geometry">
            <mxPoint x="810" y="517.2857142857143" as="targetPoint" />
          </mxGeometry>
        </mxCell>
        <mxCell id="z4wA7xu3LtJDyuMt949T-198" value="RGB" style="rounded=1;whiteSpace=wrap;html=1;" parent="1" vertex="1">
          <mxGeometry x="720.1" y="496.88" width="70" height="26.87" as="geometry" />
        </mxCell>
        <mxCell id="z4wA7xu3LtJDyuMt949T-308" style="edgeStyle=none;rounded=0;orthogonalLoop=1;jettySize=auto;html=1;exitX=1;exitY=0.25;exitDx=0;exitDy=0;endArrow=none;endFill=0;" parent="1" source="z4wA7xu3LtJDyuMt949T-199" edge="1">
          <mxGeometry relative="1" as="geometry">
            <mxPoint x="870" y="543.5714285714286" as="targetPoint" />
          </mxGeometry>
        </mxCell>
        <mxCell id="z4wA7xu3LtJDyuMt949T-309" style="edgeStyle=none;rounded=0;orthogonalLoop=1;jettySize=auto;html=1;exitX=1;exitY=0.5;exitDx=0;exitDy=0;endArrow=none;endFill=0;" parent="1" source="z4wA7xu3LtJDyuMt949T-199" edge="1">
          <mxGeometry relative="1" as="geometry">
            <mxPoint x="840" y="550.4285714285714" as="targetPoint" />
          </mxGeometry>
        </mxCell>
        <mxCell id="z4wA7xu3LtJDyuMt949T-310" style="edgeStyle=none;rounded=0;orthogonalLoop=1;jettySize=auto;html=1;exitX=1;exitY=0.75;exitDx=0;exitDy=0;endArrow=none;endFill=0;" parent="1" source="z4wA7xu3LtJDyuMt949T-199" edge="1">
          <mxGeometry relative="1" as="geometry">
            <mxPoint x="810" y="557.2857142857143" as="targetPoint" />
          </mxGeometry>
        </mxCell>
        <mxCell id="z4wA7xu3LtJDyuMt949T-199" value="RGB" style="rounded=1;whiteSpace=wrap;html=1;" parent="1" vertex="1">
          <mxGeometry x="720.1" y="536.88" width="70" height="26.87" as="geometry" />
        </mxCell>
        <mxCell id="z4wA7xu3LtJDyuMt949T-246" style="edgeStyle=elbowEdgeStyle;rounded=0;orthogonalLoop=1;jettySize=auto;html=1;exitX=0;exitY=0.5;exitDx=0;exitDy=0;endArrow=none;endFill=0;" parent="1" source="z4wA7xu3LtJDyuMt949T-200" edge="1">
          <mxGeometry relative="1" as="geometry">
            <mxPoint x="539.9999999999998" y="520" as="targetPoint" />
            <Array as="points">
              <mxPoint x="620" y="560" />
            </Array>
          </mxGeometry>
        </mxCell>
        <mxCell id="z4wA7xu3LtJDyuMt949T-311" style="edgeStyle=none;rounded=0;orthogonalLoop=1;jettySize=auto;html=1;exitX=1;exitY=0.25;exitDx=0;exitDy=0;endArrow=none;endFill=0;" parent="1" source="z4wA7xu3LtJDyuMt949T-200" edge="1">
          <mxGeometry relative="1" as="geometry">
            <mxPoint x="870" y="583.5714285714286" as="targetPoint" />
          </mxGeometry>
        </mxCell>
        <mxCell id="z4wA7xu3LtJDyuMt949T-312" style="edgeStyle=none;rounded=0;orthogonalLoop=1;jettySize=auto;html=1;exitX=1;exitY=0.5;exitDx=0;exitDy=0;endArrow=none;endFill=0;" parent="1" source="z4wA7xu3LtJDyuMt949T-200" edge="1">
          <mxGeometry relative="1" as="geometry">
            <mxPoint x="840" y="590.4285714285714" as="targetPoint" />
          </mxGeometry>
        </mxCell>
        <mxCell id="z4wA7xu3LtJDyuMt949T-313" style="edgeStyle=none;rounded=0;orthogonalLoop=1;jettySize=auto;html=1;exitX=1;exitY=0.75;exitDx=0;exitDy=0;endArrow=none;endFill=0;" parent="1" source="z4wA7xu3LtJDyuMt949T-200" edge="1">
          <mxGeometry relative="1" as="geometry">
            <mxPoint x="810" y="597.2857142857143" as="targetPoint" />
          </mxGeometry>
        </mxCell>
        <mxCell id="z4wA7xu3LtJDyuMt949T-200" value="RGB" style="rounded=1;whiteSpace=wrap;html=1;" parent="1" vertex="1">
          <mxGeometry x="720.1" y="576.87" width="70" height="26.87" as="geometry" />
        </mxCell>
        <mxCell id="z4wA7xu3LtJDyuMt949T-247" style="edgeStyle=elbowEdgeStyle;rounded=0;orthogonalLoop=1;jettySize=auto;html=1;exitX=0;exitY=0.5;exitDx=0;exitDy=0;endArrow=none;endFill=0;" parent="1" source="z4wA7xu3LtJDyuMt949T-201" edge="1">
          <mxGeometry relative="1" as="geometry">
            <mxPoint x="539.9999999999998" y="550" as="targetPoint" />
            <Array as="points">
              <mxPoint x="610" y="590" />
            </Array>
          </mxGeometry>
        </mxCell>
        <mxCell id="z4wA7xu3LtJDyuMt949T-314" style="edgeStyle=none;rounded=0;orthogonalLoop=1;jettySize=auto;html=1;exitX=1;exitY=0.25;exitDx=0;exitDy=0;endArrow=none;endFill=0;" parent="1" source="z4wA7xu3LtJDyuMt949T-201" edge="1">
          <mxGeometry relative="1" as="geometry">
            <mxPoint x="870" y="620.7142857142857" as="targetPoint" />
          </mxGeometry>
        </mxCell>
        <mxCell id="z4wA7xu3LtJDyuMt949T-315" style="edgeStyle=none;rounded=0;orthogonalLoop=1;jettySize=auto;html=1;exitX=1;exitY=0.5;exitDx=0;exitDy=0;endArrow=none;endFill=0;" parent="1" source="z4wA7xu3LtJDyuMt949T-201" edge="1">
          <mxGeometry relative="1" as="geometry">
            <mxPoint x="840" y="627" as="targetPoint" />
          </mxGeometry>
        </mxCell>
        <mxCell id="z4wA7xu3LtJDyuMt949T-316" style="edgeStyle=none;rounded=0;orthogonalLoop=1;jettySize=auto;html=1;exitX=1;exitY=0.75;exitDx=0;exitDy=0;endArrow=none;endFill=0;" parent="1" source="z4wA7xu3LtJDyuMt949T-201" edge="1">
          <mxGeometry relative="1" as="geometry">
            <mxPoint x="810" y="633.8571428571429" as="targetPoint" />
          </mxGeometry>
        </mxCell>
        <mxCell id="z4wA7xu3LtJDyuMt949T-201" value="RGB" style="rounded=1;whiteSpace=wrap;html=1;" parent="1" vertex="1">
          <mxGeometry x="720.1" y="613.74" width="70" height="26.87" as="geometry" />
        </mxCell>
        <mxCell id="z4wA7xu3LtJDyuMt949T-248" style="edgeStyle=elbowEdgeStyle;rounded=0;orthogonalLoop=1;jettySize=auto;html=1;exitX=0;exitY=0.5;exitDx=0;exitDy=0;endArrow=none;endFill=0;" parent="1" source="z4wA7xu3LtJDyuMt949T-202" edge="1">
          <mxGeometry relative="1" as="geometry">
            <mxPoint x="539.9999999999998" y="580" as="targetPoint" />
            <Array as="points">
              <mxPoint x="600" y="620" />
            </Array>
          </mxGeometry>
        </mxCell>
        <mxCell id="z4wA7xu3LtJDyuMt949T-317" style="edgeStyle=none;rounded=0;orthogonalLoop=1;jettySize=auto;html=1;exitX=1;exitY=0.25;exitDx=0;exitDy=0;endArrow=none;endFill=0;" parent="1" source="z4wA7xu3LtJDyuMt949T-202" edge="1">
          <mxGeometry relative="1" as="geometry">
            <mxPoint x="870" y="660.7142857142857" as="targetPoint" />
          </mxGeometry>
        </mxCell>
        <mxCell id="z4wA7xu3LtJDyuMt949T-318" style="edgeStyle=none;rounded=0;orthogonalLoop=1;jettySize=auto;html=1;exitX=1;exitY=0.5;exitDx=0;exitDy=0;endArrow=none;endFill=0;" parent="1" source="z4wA7xu3LtJDyuMt949T-202" edge="1">
          <mxGeometry relative="1" as="geometry">
            <mxPoint x="840" y="667" as="targetPoint" />
          </mxGeometry>
        </mxCell>
        <mxCell id="z4wA7xu3LtJDyuMt949T-319" style="edgeStyle=none;rounded=0;orthogonalLoop=1;jettySize=auto;html=1;exitX=1;exitY=0.75;exitDx=0;exitDy=0;endArrow=none;endFill=0;" parent="1" source="z4wA7xu3LtJDyuMt949T-202" edge="1">
          <mxGeometry relative="1" as="geometry">
            <mxPoint x="810" y="673.8571428571429" as="targetPoint" />
          </mxGeometry>
        </mxCell>
        <mxCell id="z4wA7xu3LtJDyuMt949T-202" value="RGB" style="rounded=1;whiteSpace=wrap;html=1;" parent="1" vertex="1">
          <mxGeometry x="720.1" y="653.74" width="70" height="26.87" as="geometry" />
        </mxCell>
        <mxCell id="z4wA7xu3LtJDyuMt949T-320" style="edgeStyle=none;rounded=0;orthogonalLoop=1;jettySize=auto;html=1;exitX=1;exitY=0.25;exitDx=0;exitDy=0;endArrow=none;endFill=0;" parent="1" source="z4wA7xu3LtJDyuMt949T-203" edge="1">
          <mxGeometry relative="1" as="geometry">
            <mxPoint x="870" y="700.7142857142858" as="targetPoint" />
          </mxGeometry>
        </mxCell>
        <mxCell id="z4wA7xu3LtJDyuMt949T-321" style="edgeStyle=none;rounded=0;orthogonalLoop=1;jettySize=auto;html=1;exitX=1;exitY=0.5;exitDx=0;exitDy=0;endArrow=none;endFill=0;" parent="1" source="z4wA7xu3LtJDyuMt949T-203" edge="1">
          <mxGeometry relative="1" as="geometry">
            <mxPoint x="840" y="707" as="targetPoint" />
          </mxGeometry>
        </mxCell>
        <mxCell id="z4wA7xu3LtJDyuMt949T-322" style="edgeStyle=none;rounded=0;orthogonalLoop=1;jettySize=auto;html=1;exitX=1;exitY=0.75;exitDx=0;exitDy=0;endArrow=none;endFill=0;" parent="1" source="z4wA7xu3LtJDyuMt949T-203" edge="1">
          <mxGeometry relative="1" as="geometry">
            <mxPoint x="810" y="713.8571428571429" as="targetPoint" />
          </mxGeometry>
        </mxCell>
        <mxCell id="z4wA7xu3LtJDyuMt949T-203" value="RGB" style="rounded=1;whiteSpace=wrap;html=1;" parent="1" vertex="1">
          <mxGeometry x="720.1" y="693.74" width="70" height="26.87" as="geometry" />
        </mxCell>
        <mxCell id="z4wA7xu3LtJDyuMt949T-255" style="edgeStyle=elbowEdgeStyle;rounded=0;orthogonalLoop=1;jettySize=auto;html=1;exitX=0;exitY=0.5;exitDx=0;exitDy=0;startArrow=none;startFill=0;endArrow=none;endFill=0;" parent="1" source="z4wA7xu3LtJDyuMt949T-204" edge="1">
          <mxGeometry relative="1" as="geometry">
            <mxPoint x="539.9999999999998" y="640" as="targetPoint" />
            <Array as="points">
              <mxPoint x="580" y="700" />
            </Array>
          </mxGeometry>
        </mxCell>
        <mxCell id="z4wA7xu3LtJDyuMt949T-323" style="edgeStyle=none;rounded=0;orthogonalLoop=1;jettySize=auto;html=1;exitX=1;exitY=0.25;exitDx=0;exitDy=0;endArrow=none;endFill=0;" parent="1" source="z4wA7xu3LtJDyuMt949T-204" edge="1">
          <mxGeometry relative="1" as="geometry">
            <mxPoint x="870" y="740.7142857142858" as="targetPoint" />
          </mxGeometry>
        </mxCell>
        <mxCell id="z4wA7xu3LtJDyuMt949T-324" style="edgeStyle=none;rounded=0;orthogonalLoop=1;jettySize=auto;html=1;exitX=1;exitY=0.5;exitDx=0;exitDy=0;endArrow=none;endFill=0;" parent="1" source="z4wA7xu3LtJDyuMt949T-204" edge="1">
          <mxGeometry relative="1" as="geometry">
            <mxPoint x="840" y="747" as="targetPoint" />
          </mxGeometry>
        </mxCell>
        <mxCell id="z4wA7xu3LtJDyuMt949T-325" style="edgeStyle=none;rounded=0;orthogonalLoop=1;jettySize=auto;html=1;exitX=1;exitY=0.75;exitDx=0;exitDy=0;endArrow=none;endFill=0;" parent="1" source="z4wA7xu3LtJDyuMt949T-204" edge="1">
          <mxGeometry relative="1" as="geometry">
            <mxPoint x="810" y="753.8571428571429" as="targetPoint" />
          </mxGeometry>
        </mxCell>
        <mxCell id="z4wA7xu3LtJDyuMt949T-204" value="RGB" style="rounded=1;whiteSpace=wrap;html=1;" parent="1" vertex="1">
          <mxGeometry x="720.1" y="733.74" width="70" height="26.87" as="geometry" />
        </mxCell>
        <mxCell id="z4wA7xu3LtJDyuMt949T-228" style="edgeStyle=elbowEdgeStyle;rounded=0;orthogonalLoop=1;jettySize=auto;html=1;exitX=1;exitY=0.5;exitDx=0;exitDy=0;entryX=0;entryY=0.5;entryDx=0;entryDy=0;entryPerimeter=0;endArrow=none;endFill=0;" parent="1" source="z4wA7xu3LtJDyuMt949T-180" target="z4wA7xu3LtJDyuMt949T-107" edge="1">
          <mxGeometry relative="1" as="geometry">
            <Array as="points">
              <mxPoint x="280" y="460" />
            </Array>
          </mxGeometry>
        </mxCell>
        <mxCell id="z4wA7xu3LtJDyuMt949T-245" style="edgeStyle=elbowEdgeStyle;rounded=0;orthogonalLoop=1;jettySize=auto;html=1;exitX=0;exitY=0.5;exitDx=0;exitDy=0;entryX=0;entryY=0.5;entryDx=0;entryDy=0;entryPerimeter=0;endArrow=none;endFill=0;" parent="1" source="z4wA7xu3LtJDyuMt949T-199" target="z4wA7xu3LtJDyuMt949T-15" edge="1">
          <mxGeometry relative="1" as="geometry">
            <Array as="points">
              <mxPoint x="630" y="520" />
            </Array>
          </mxGeometry>
        </mxCell>
        <mxCell id="z4wA7xu3LtJDyuMt949T-249" style="edgeStyle=elbowEdgeStyle;rounded=0;orthogonalLoop=1;jettySize=auto;html=1;exitX=0;exitY=0.5;exitDx=0;exitDy=0;entryX=0;entryY=0.5;entryDx=0;entryDy=0;entryPerimeter=0;endArrow=none;endFill=0;" parent="1" source="z4wA7xu3LtJDyuMt949T-203" target="z4wA7xu3LtJDyuMt949T-11" edge="1">
          <mxGeometry relative="1" as="geometry">
            <Array as="points">
              <mxPoint x="590" y="660" />
            </Array>
          </mxGeometry>
        </mxCell>
        <mxCell id="z4wA7xu3LtJDyuMt949T-258" style="edgeStyle=orthogonalEdgeStyle;rounded=0;orthogonalLoop=1;jettySize=auto;html=1;exitX=0;exitY=0.5;exitDx=0;exitDy=0;exitPerimeter=0;endArrow=none;endFill=0;" parent="1" source="z4wA7xu3LtJDyuMt949T-118" edge="1">
          <mxGeometry relative="1" as="geometry">
            <mxPoint x="210" y="750" as="targetPoint" />
            <Array as="points">
              <mxPoint x="570" y="670" />
              <mxPoint x="570" y="860" />
              <mxPoint x="340" y="860" />
              <mxPoint x="340" y="750" />
            </Array>
          </mxGeometry>
        </mxCell>
        <mxCell id="z4wA7xu3LtJDyuMt949T-259" style="edgeStyle=orthogonalEdgeStyle;rounded=0;orthogonalLoop=1;jettySize=auto;html=1;exitX=0;exitY=0.5;exitDx=0;exitDy=0;exitPerimeter=0;entryX=1;entryY=0.5;entryDx=0;entryDy=0;endArrow=none;endFill=0;" parent="1" source="z4wA7xu3LtJDyuMt949T-253" target="z4wA7xu3LtJDyuMt949T-187" edge="1">
          <mxGeometry relative="1" as="geometry">
            <Array as="points">
              <mxPoint x="550" y="700" />
              <mxPoint x="550" y="830" />
              <mxPoint x="360" y="830" />
              <mxPoint x="360" y="707" />
            </Array>
          </mxGeometry>
        </mxCell>
        <mxCell id="z4wA7xu3LtJDyuMt949T-272" style="edgeStyle=orthogonalEdgeStyle;rounded=0;orthogonalLoop=1;jettySize=auto;html=1;exitX=0;exitY=0.5;exitDx=0;exitDy=0;exitPerimeter=0;endArrow=none;endFill=0;" parent="1" source="z4wA7xu3LtJDyuMt949T-262" edge="1">
          <mxGeometry relative="1" as="geometry">
            <mxPoint x="810" y="230" as="targetPoint" />
            <Array as="points">
              <mxPoint x="420" y="80" />
              <mxPoint x="101" y="80" />
              <mxPoint x="101" y="890" />
              <mxPoint x="810" y="890" />
            </Array>
          </mxGeometry>
        </mxCell>
        <mxCell id="z4wA7xu3LtJDyuMt949T-262" value="" style="pointerEvents=1;verticalLabelPosition=bottom;shadow=0;dashed=0;align=center;html=1;verticalAlign=top;shape=mxgraph.electrical.resistors.resistor_2;direction=south;" parent="1" vertex="1">
          <mxGeometry x="415" y="100" width="10" height="50" as="geometry" />
        </mxCell>
        <mxCell id="z4wA7xu3LtJDyuMt949T-271" style="edgeStyle=orthogonalEdgeStyle;rounded=0;orthogonalLoop=1;jettySize=auto;html=1;exitX=0;exitY=0.5;exitDx=0;exitDy=0;exitPerimeter=0;endArrow=none;endFill=0;" parent="1" source="z4wA7xu3LtJDyuMt949T-263" edge="1">
          <mxGeometry relative="1" as="geometry">
            <mxPoint x="840" y="220" as="targetPoint" />
            <Array as="points">
              <mxPoint x="460" y="50" />
              <mxPoint x="60" y="50" />
              <mxPoint x="60" y="920" />
              <mxPoint x="840" y="920" />
            </Array>
          </mxGeometry>
        </mxCell>
        <mxCell id="z4wA7xu3LtJDyuMt949T-263" value="" style="pointerEvents=1;verticalLabelPosition=bottom;shadow=0;dashed=0;align=center;html=1;verticalAlign=top;shape=mxgraph.electrical.resistors.resistor_2;direction=south;" parent="1" vertex="1">
          <mxGeometry x="455" y="100" width="10" height="50" as="geometry" />
        </mxCell>
        <mxCell id="z4wA7xu3LtJDyuMt949T-273" style="edgeStyle=orthogonalEdgeStyle;rounded=0;orthogonalLoop=1;jettySize=auto;html=1;exitX=0;exitY=0.5;exitDx=0;exitDy=0;exitPerimeter=0;endArrow=none;endFill=0;" parent="1" source="z4wA7xu3LtJDyuMt949T-264" edge="1">
          <mxGeometry relative="1" as="geometry">
            <mxPoint x="870" y="210" as="targetPoint" />
            <Array as="points">
              <mxPoint x="500" y="20" />
              <mxPoint x="20" y="20" />
              <mxPoint x="20" y="950" />
              <mxPoint x="870" y="950" />
            </Array>
          </mxGeometry>
        </mxCell>
        <mxCell id="z4wA7xu3LtJDyuMt949T-264" value="" style="pointerEvents=1;verticalLabelPosition=bottom;shadow=0;dashed=0;align=center;html=1;verticalAlign=top;shape=mxgraph.electrical.resistors.resistor_2;direction=south;" parent="1" vertex="1">
          <mxGeometry x="495" y="100" width="10" height="50" as="geometry" />
        </mxCell>
        <mxCell id="z4wA7xu3LtJDyuMt949T-265" style="edgeStyle=orthogonalEdgeStyle;rounded=0;orthogonalLoop=1;jettySize=auto;html=1;exitX=0;exitY=0.5;exitDx=0;exitDy=0;exitPerimeter=0;entryX=1;entryY=0.5;entryDx=0;entryDy=0;entryPerimeter=0;endArrow=none;endFill=0;" parent="1" source="z4wA7xu3LtJDyuMt949T-24" target="z4wA7xu3LtJDyuMt949T-262" edge="1">
          <mxGeometry relative="1" as="geometry" />
        </mxCell>
        <mxCell id="z4wA7xu3LtJDyuMt949T-266" style="edgeStyle=orthogonalEdgeStyle;rounded=0;orthogonalLoop=1;jettySize=auto;html=1;exitX=0;exitY=0.5;exitDx=0;exitDy=0;exitPerimeter=0;entryX=1;entryY=0.5;entryDx=0;entryDy=0;entryPerimeter=0;endArrow=none;endFill=0;" parent="1" source="z4wA7xu3LtJDyuMt949T-25" target="z4wA7xu3LtJDyuMt949T-263" edge="1">
          <mxGeometry relative="1" as="geometry" />
        </mxCell>
        <mxCell id="z4wA7xu3LtJDyuMt949T-267" style="edgeStyle=orthogonalEdgeStyle;rounded=0;orthogonalLoop=1;jettySize=auto;html=1;exitX=0;exitY=0.5;exitDx=0;exitDy=0;exitPerimeter=0;entryX=1;entryY=0.5;entryDx=0;entryDy=0;entryPerimeter=0;endArrow=none;endFill=0;" parent="1" source="z4wA7xu3LtJDyuMt949T-4" target="z4wA7xu3LtJDyuMt949T-264" edge="1">
          <mxGeometry relative="1" as="geometry">
            <mxPoint x="499.82352941176464" y="160" as="targetPoint" />
          </mxGeometry>
        </mxCell>
        <mxCell id="z4wA7xu3LtJDyuMt949T-7" value="" style="rounded=0;whiteSpace=wrap;html=1;rotation=90;" parent="1" vertex="1">
          <mxGeometry x="155.32" y="414.69" width="609.37" height="160" as="geometry" />
        </mxCell>
        <mxCell id="z4wA7xu3LtJDyuMt949T-4" value="PC12" style="strokeWidth=2;html=1;shape=mxgraph.flowchart.delay;whiteSpace=wrap;rotation=90;" parent="1" vertex="1">
          <mxGeometry x="480" y="200" width="40" height="20" as="geometry" />
        </mxCell>
        <mxCell id="z4wA7xu3LtJDyuMt949T-22" value="" style="group" parent="1" vertex="1" connectable="0">
          <mxGeometry x="380" y="190" width="195" height="430" as="geometry" />
        </mxCell>
        <mxCell id="z4wA7xu3LtJDyuMt949T-24" value="PC10" style="strokeWidth=2;html=1;shape=mxgraph.flowchart.delay;whiteSpace=wrap;rotation=90;" parent="z4wA7xu3LtJDyuMt949T-22" vertex="1">
          <mxGeometry x="20" y="10" width="40" height="20" as="geometry" />
        </mxCell>
        <mxCell id="z4wA7xu3LtJDyuMt949T-25" value="PC11" style="strokeWidth=2;html=1;shape=mxgraph.flowchart.delay;whiteSpace=wrap;rotation=90;" parent="z4wA7xu3LtJDyuMt949T-22" vertex="1">
          <mxGeometry x="60" y="10" width="40" height="20" as="geometry" />
        </mxCell>
        <mxCell id="z4wA7xu3LtJDyuMt949T-13" value="PA10" style="strokeWidth=2;html=1;shape=mxgraph.flowchart.delay;whiteSpace=wrap;rotation=0;direction=west;" parent="z4wA7xu3LtJDyuMt949T-22" vertex="1">
          <mxGeometry x="120" y="350" width="40" height="20" as="geometry" />
        </mxCell>
        <mxCell id="z4wA7xu3LtJDyuMt949T-12" value="PA9" style="strokeWidth=2;html=1;shape=mxgraph.flowchart.delay;whiteSpace=wrap;rotation=0;direction=west;" parent="z4wA7xu3LtJDyuMt949T-22" vertex="1">
          <mxGeometry x="120" y="380" width="40" height="20" as="geometry" />
        </mxCell>
        <mxCell id="z4wA7xu3LtJDyuMt949T-125" style="edgeStyle=orthogonalEdgeStyle;rounded=0;orthogonalLoop=1;jettySize=auto;html=1;exitX=1;exitY=0.5;exitDx=0;exitDy=0;exitPerimeter=0;" parent="z4wA7xu3LtJDyuMt949T-22" source="z4wA7xu3LtJDyuMt949T-25" target="z4wA7xu3LtJDyuMt949T-25" edge="1">
          <mxGeometry relative="1" as="geometry" />
        </mxCell>
        <mxCell id="z4wA7xu3LtJDyuMt949T-117" value="PC3" style="strokeWidth=2;html=1;shape=mxgraph.flowchart.delay;whiteSpace=wrap;rotation=0;" parent="z4wA7xu3LtJDyuMt949T-22" vertex="1">
          <mxGeometry y="140" width="40" height="20" as="geometry" />
        </mxCell>
        <mxCell id="z4wA7xu3LtJDyuMt949T-15" value="PA12" style="strokeWidth=2;html=1;shape=mxgraph.flowchart.delay;whiteSpace=wrap;rotation=0;direction=west;" parent="z4wA7xu3LtJDyuMt949T-22" vertex="1">
          <mxGeometry x="120" y="290" width="40" height="20" as="geometry" />
        </mxCell>
        <mxCell id="z4wA7xu3LtJDyuMt949T-14" value="PA11" style="strokeWidth=2;html=1;shape=mxgraph.flowchart.delay;whiteSpace=wrap;rotation=0;direction=west;" parent="z4wA7xu3LtJDyuMt949T-22" vertex="1">
          <mxGeometry x="120" y="320" width="40" height="20" as="geometry" />
        </mxCell>
        <mxCell id="z4wA7xu3LtJDyuMt949T-11" value="PA8" style="strokeWidth=2;html=1;shape=mxgraph.flowchart.delay;whiteSpace=wrap;rotation=0;direction=west;" parent="z4wA7xu3LtJDyuMt949T-22" vertex="1">
          <mxGeometry x="120" y="410" width="40" height="20" as="geometry" />
        </mxCell>
        <mxCell id="z4wA7xu3LtJDyuMt949T-162" value="PB11" style="strokeWidth=2;html=1;shape=mxgraph.flowchart.delay;whiteSpace=wrap;rotation=0;" parent="z4wA7xu3LtJDyuMt949T-22" vertex="1">
          <mxGeometry y="260" width="40" height="20" as="geometry" />
        </mxCell>
        <mxCell id="z4wA7xu3LtJDyuMt949T-107" value="PB10" style="strokeWidth=2;html=1;shape=mxgraph.flowchart.delay;whiteSpace=wrap;rotation=0;" parent="1" vertex="1">
          <mxGeometry x="380" y="420" width="40" height="20" as="geometry" />
        </mxCell>
        <mxCell id="z4wA7xu3LtJDyuMt949T-16" value="PA15" style="strokeWidth=2;html=1;shape=mxgraph.flowchart.delay;whiteSpace=wrap;rotation=0;direction=west;" parent="1" vertex="1">
          <mxGeometry x="500" y="450" width="40" height="20" as="geometry" />
        </mxCell>
        <mxCell id="z4wA7xu3LtJDyuMt949T-35" value="PB3" style="strokeWidth=2;html=1;shape=mxgraph.flowchart.delay;whiteSpace=wrap;rotation=0;direction=west;" parent="1" vertex="1">
          <mxGeometry x="500" y="420" width="40" height="20" as="geometry" />
        </mxCell>
        <mxCell id="z4wA7xu3LtJDyuMt949T-105" value="PB7" style="strokeWidth=2;html=1;shape=mxgraph.flowchart.delay;whiteSpace=wrap;rotation=0;direction=west;" parent="1" vertex="1">
          <mxGeometry x="500" y="300" width="40" height="20" as="geometry" />
        </mxCell>
        <mxCell id="z4wA7xu3LtJDyuMt949T-36" value="PB4" style="strokeWidth=2;html=1;shape=mxgraph.flowchart.delay;whiteSpace=wrap;rotation=0;direction=west;" parent="1" vertex="1">
          <mxGeometry x="500" y="390" width="40" height="20" as="geometry" />
        </mxCell>
        <mxCell id="z4wA7xu3LtJDyuMt949T-69" value="PB5" style="strokeWidth=2;html=1;shape=mxgraph.flowchart.delay;whiteSpace=wrap;rotation=0;direction=west;" parent="1" vertex="1">
          <mxGeometry x="500" y="360" width="40" height="20" as="geometry" />
        </mxCell>
        <mxCell id="z4wA7xu3LtJDyuMt949T-102" value="PB6" style="strokeWidth=2;html=1;shape=mxgraph.flowchart.delay;whiteSpace=wrap;rotation=0;direction=west;" parent="1" vertex="1">
          <mxGeometry x="500" y="330" width="40" height="20" as="geometry" />
        </mxCell>
        <mxCell id="z4wA7xu3LtJDyuMt949T-104" value="PB8" style="strokeWidth=2;html=1;shape=mxgraph.flowchart.delay;whiteSpace=wrap;rotation=0;direction=west;" parent="1" vertex="1">
          <mxGeometry x="500" y="270" width="40" height="20" as="geometry" />
        </mxCell>
        <mxCell id="z4wA7xu3LtJDyuMt949T-10" value="PA5" style="strokeWidth=2;html=1;shape=mxgraph.flowchart.delay;whiteSpace=wrap;rotation=0;" parent="1" vertex="1">
          <mxGeometry x="380" y="390" width="40" height="20" as="geometry" />
        </mxCell>
        <mxCell id="z4wA7xu3LtJDyuMt949T-9" value="PA4" style="strokeWidth=2;html=1;shape=mxgraph.flowchart.delay;whiteSpace=wrap;rotation=0;" parent="1" vertex="1">
          <mxGeometry x="380" y="360" width="40" height="20" as="geometry" />
        </mxCell>
        <mxCell id="z4wA7xu3LtJDyuMt949T-113" value="PC0" style="strokeWidth=2;html=1;shape=mxgraph.flowchart.delay;whiteSpace=wrap;rotation=0;" parent="1" vertex="1">
          <mxGeometry x="380" y="240" width="40" height="20" as="geometry" />
        </mxCell>
        <mxCell id="z4wA7xu3LtJDyuMt949T-110" value="PC1" style="strokeWidth=2;html=1;shape=mxgraph.flowchart.delay;whiteSpace=wrap;rotation=0;" parent="1" vertex="1">
          <mxGeometry x="380" y="270" width="40" height="20" as="geometry" />
        </mxCell>
        <mxCell id="z4wA7xu3LtJDyuMt949T-115" value="PC2" style="strokeWidth=2;html=1;shape=mxgraph.flowchart.delay;whiteSpace=wrap;rotation=0;" parent="1" vertex="1">
          <mxGeometry x="380" y="300" width="40" height="20" as="geometry" />
        </mxCell>
        <mxCell id="z4wA7xu3LtJDyuMt949T-103" value="PB9" style="strokeWidth=2;html=1;shape=mxgraph.flowchart.delay;whiteSpace=wrap;rotation=0;direction=west;" parent="1" vertex="1">
          <mxGeometry x="500" y="240" width="40" height="20" as="geometry" />
        </mxCell>
        <mxCell id="z4wA7xu3LtJDyuMt949T-118" value="PC7" style="strokeWidth=2;html=1;shape=mxgraph.flowchart.delay;whiteSpace=wrap;rotation=0;direction=west;" parent="1" vertex="1">
          <mxGeometry x="500" y="660" width="40" height="20" as="geometry" />
        </mxCell>
        <mxCell id="z4wA7xu3LtJDyuMt949T-112" value="PB12" style="strokeWidth=2;html=1;shape=mxgraph.flowchart.delay;whiteSpace=wrap;rotation=0;" parent="1" vertex="1">
          <mxGeometry x="380" y="480" width="40" height="20" as="geometry" />
        </mxCell>
        <mxCell id="z4wA7xu3LtJDyuMt949T-111" value="PB13" style="strokeWidth=2;html=1;shape=mxgraph.flowchart.delay;whiteSpace=wrap;rotation=0;" parent="1" vertex="1">
          <mxGeometry x="380" y="510" width="40" height="20" as="geometry" />
        </mxCell>
        <mxCell id="z4wA7xu3LtJDyuMt949T-109" value="PB15" style="strokeWidth=2;html=1;shape=mxgraph.flowchart.delay;whiteSpace=wrap;rotation=0;" parent="1" vertex="1">
          <mxGeometry x="380" y="570" width="40" height="20" as="geometry" />
        </mxCell>
        <mxCell id="z4wA7xu3LtJDyuMt949T-108" value="PB14" style="strokeWidth=2;html=1;shape=mxgraph.flowchart.delay;whiteSpace=wrap;rotation=0;" parent="1" vertex="1">
          <mxGeometry x="380" y="540" width="40" height="20" as="geometry" />
        </mxCell>
        <mxCell id="z4wA7xu3LtJDyuMt949T-252" value="PC6" style="strokeWidth=2;html=1;shape=mxgraph.flowchart.delay;whiteSpace=wrap;rotation=0;direction=west;" parent="1" vertex="1">
          <mxGeometry x="500" y="630" width="40" height="20" as="geometry" />
        </mxCell>
        <mxCell id="z4wA7xu3LtJDyuMt949T-253" value="PC8" style="strokeWidth=2;html=1;shape=mxgraph.flowchart.delay;whiteSpace=wrap;rotation=0;direction=west;" parent="1" vertex="1">
          <mxGeometry x="500" y="690" width="40" height="20" as="geometry" />
        </mxCell>
        <mxCell id="z4wA7xu3LtJDyuMt949T-227" style="edgeStyle=elbowEdgeStyle;rounded=0;orthogonalLoop=1;jettySize=auto;html=1;exitX=1;exitY=0.5;exitDx=0;exitDy=0;endArrow=none;endFill=0;" parent="1" source="z4wA7xu3LtJDyuMt949T-179" edge="1">
          <mxGeometry relative="1" as="geometry">
            <mxPoint x="380" y="400" as="targetPoint" />
            <Array as="points">
              <mxPoint x="270" y="420" />
            </Array>
          </mxGeometry>
        </mxCell>
        <mxCell id="z4wA7xu3LtJDyuMt949T-281" value="330" style="text;html=1;align=center;verticalAlign=middle;resizable=0;points=[];autosize=1;strokeColor=none;fillColor=none;" parent="1" vertex="1">
          <mxGeometry x="497.5" y="110" width="40" height="30" as="geometry" />
        </mxCell>
        <mxCell id="z4wA7xu3LtJDyuMt949T-282" value="330" style="text;html=1;align=center;verticalAlign=middle;resizable=0;points=[];autosize=1;strokeColor=none;fillColor=none;" parent="1" vertex="1">
          <mxGeometry x="457.5" y="110" width="40" height="30" as="geometry" />
        </mxCell>
        <mxCell id="z4wA7xu3LtJDyuMt949T-283" value="330" style="text;html=1;align=center;verticalAlign=middle;resizable=0;points=[];autosize=1;strokeColor=none;fillColor=none;" parent="1" vertex="1">
          <mxGeometry x="417.5" y="110" width="40" height="30" as="geometry" />
        </mxCell>
        <mxCell id="z4wA7xu3LtJDyuMt949T-369" value="" style="rounded=0;whiteSpace=wrap;html=1;direction=south;" parent="1" vertex="1">
          <mxGeometry x="1330" y="190" width="320" height="640" as="geometry" />
        </mxCell>
        <mxCell id="z4wA7xu3LtJDyuMt949T-370" value="PA10" style="strokeWidth=2;html=1;shape=mxgraph.flowchart.delay;whiteSpace=wrap;rotation=0;direction=west;" parent="1" vertex="1">
          <mxGeometry x="1610" y="230" width="40" height="20" as="geometry" />
        </mxCell>
        <mxCell id="z4wA7xu3LtJDyuMt949T-371" value="PA9" style="strokeWidth=2;html=1;shape=mxgraph.flowchart.delay;whiteSpace=wrap;rotation=0;direction=west;" parent="1" vertex="1">
          <mxGeometry x="1610" y="256.87" width="40" height="20" as="geometry" />
        </mxCell>
        <mxCell id="z4wA7xu3LtJDyuMt949T-372" value="PA8" style="strokeWidth=2;html=1;shape=mxgraph.flowchart.delay;whiteSpace=wrap;rotation=0;direction=west;" parent="1" vertex="1">
          <mxGeometry x="1610" y="290" width="40" height="20" as="geometry" />
        </mxCell>
        <mxCell id="z4wA7xu3LtJDyuMt949T-373" value="PC9" style="strokeWidth=2;html=1;shape=mxgraph.flowchart.delay;whiteSpace=wrap;rotation=0;direction=west;" parent="1" vertex="1">
          <mxGeometry x="1610" y="316.88" width="40" height="20" as="geometry" />
        </mxCell>
        <mxCell id="z4wA7xu3LtJDyuMt949T-374" value="PC8" style="strokeWidth=2;html=1;shape=mxgraph.flowchart.delay;whiteSpace=wrap;rotation=0;direction=west;" parent="1" vertex="1">
          <mxGeometry x="1610" y="346.87" width="40" height="20" as="geometry" />
        </mxCell>
        <mxCell id="z4wA7xu3LtJDyuMt949T-377" value="PC7" style="strokeWidth=2;html=1;shape=mxgraph.flowchart.delay;whiteSpace=wrap;rotation=0;direction=west;" parent="1" vertex="1">
          <mxGeometry x="1610" y="376.88" width="40" height="20" as="geometry" />
        </mxCell>
        <mxCell id="z4wA7xu3LtJDyuMt949T-378" value="PC6" style="strokeWidth=2;html=1;shape=mxgraph.flowchart.delay;whiteSpace=wrap;rotation=0;direction=west;" parent="1" vertex="1">
          <mxGeometry x="1610" y="403.75" width="40" height="20" as="geometry" />
        </mxCell>
        <mxCell id="z4wA7xu3LtJDyuMt949T-503" style="edgeStyle=orthogonalEdgeStyle;rounded=0;orthogonalLoop=1;jettySize=auto;html=1;exitX=0;exitY=0.5;exitDx=0;exitDy=0;exitPerimeter=0;endArrow=none;endFill=0;" parent="1" source="z4wA7xu3LtJDyuMt949T-379" edge="1">
          <mxGeometry relative="1" as="geometry">
            <mxPoint x="1750" y="620" as="targetPoint" />
            <Array as="points">
              <mxPoint x="1750" y="459" />
            </Array>
          </mxGeometry>
        </mxCell>
        <mxCell id="z4wA7xu3LtJDyuMt949T-379" value="PD2" style="strokeWidth=2;html=1;shape=mxgraph.flowchart.delay;whiteSpace=wrap;rotation=0;direction=west;" parent="1" vertex="1">
          <mxGeometry x="1610" y="448.75" width="40" height="20" as="geometry" />
        </mxCell>
        <mxCell id="z4wA7xu3LtJDyuMt949T-505" style="edgeStyle=orthogonalEdgeStyle;rounded=0;orthogonalLoop=1;jettySize=auto;html=1;exitX=0;exitY=0.5;exitDx=0;exitDy=0;exitPerimeter=0;entryX=0;entryY=0.5;entryDx=0;entryDy=0;entryPerimeter=0;endArrow=none;endFill=0;" parent="1" edge="1">
          <mxGeometry relative="1" as="geometry">
            <mxPoint x="1806" y="616.3194117647058" as="targetPoint" />
            <mxPoint x="1650" y="483.42" as="sourcePoint" />
            <Array as="points">
              <mxPoint x="1740" y="483" />
              <mxPoint x="1740" y="670" />
              <mxPoint x="1806" y="670" />
            </Array>
          </mxGeometry>
        </mxCell>
        <mxCell id="z4wA7xu3LtJDyuMt949T-380" value="PC12" style="strokeWidth=2;html=1;shape=mxgraph.flowchart.delay;whiteSpace=wrap;rotation=0;direction=west;" parent="1" vertex="1">
          <mxGeometry x="1610" y="475.63" width="40" height="20" as="geometry" />
        </mxCell>
        <mxCell id="z4wA7xu3LtJDyuMt949T-508" style="edgeStyle=orthogonalEdgeStyle;rounded=0;orthogonalLoop=1;jettySize=auto;html=1;exitX=0;exitY=0.5;exitDx=0;exitDy=0;exitPerimeter=0;entryX=0;entryY=0.5;entryDx=0;entryDy=0;entryPerimeter=0;endArrow=none;endFill=0;" parent="1" source="z4wA7xu3LtJDyuMt949T-381" target="z4wA7xu3LtJDyuMt949T-461" edge="1">
          <mxGeometry relative="1" as="geometry">
            <mxPoint x="1820" y="630" as="targetPoint" />
            <mxPoint x="1650" y="680.6099999999999" as="sourcePoint" />
            <Array as="points">
              <mxPoint x="1730" y="512" />
              <mxPoint x="1730" y="690" />
              <mxPoint x="1860" y="690" />
              <mxPoint x="1860" y="620" />
            </Array>
          </mxGeometry>
        </mxCell>
        <mxCell id="z4wA7xu3LtJDyuMt949T-381" value="PC11" style="strokeWidth=2;html=1;shape=mxgraph.flowchart.delay;whiteSpace=wrap;rotation=0;direction=west;" parent="1" vertex="1">
          <mxGeometry x="1610" y="502.5" width="40" height="20" as="geometry" />
        </mxCell>
        <mxCell id="z4wA7xu3LtJDyuMt949T-465" style="edgeStyle=orthogonalEdgeStyle;rounded=0;orthogonalLoop=1;jettySize=auto;html=1;exitX=0;exitY=0.5;exitDx=0;exitDy=0;exitPerimeter=0;entryX=0;entryY=0.5;entryDx=0;entryDy=0;entryPerimeter=0;endArrow=none;endFill=0;" parent="1" source="z4wA7xu3LtJDyuMt949T-384" target="z4wA7xu3LtJDyuMt949T-472" edge="1">
          <mxGeometry relative="1" as="geometry">
            <mxPoint x="1057" y="440" as="targetPoint" />
          </mxGeometry>
        </mxCell>
        <mxCell id="wX1Lu-52C3DSgGbVpQo7-2" value="A" style="edgeLabel;html=1;align=center;verticalAlign=middle;resizable=0;points=[];" parent="z4wA7xu3LtJDyuMt949T-465" connectable="0" vertex="1">
          <mxGeometry x="0.9338" y="-3" relative="1" as="geometry">
            <mxPoint x="3" y="-2" as="offset" />
          </mxGeometry>
        </mxCell>
        <mxCell id="z4wA7xu3LtJDyuMt949T-384" value="PB2" style="strokeWidth=2;html=1;shape=mxgraph.flowchart.delay;whiteSpace=wrap;rotation=0;" parent="1" vertex="1">
          <mxGeometry x="1330" y="230" width="40" height="20" as="geometry" />
        </mxCell>
        <mxCell id="z4wA7xu3LtJDyuMt949T-466" style="edgeStyle=orthogonalEdgeStyle;rounded=0;orthogonalLoop=1;jettySize=auto;html=1;exitX=0;exitY=0.5;exitDx=0;exitDy=0;exitPerimeter=0;entryX=0;entryY=0.5;entryDx=0;entryDy=0;entryPerimeter=0;endArrow=none;endFill=0;" parent="1" source="z4wA7xu3LtJDyuMt949T-385" target="z4wA7xu3LtJDyuMt949T-473" edge="1">
          <mxGeometry relative="1" as="geometry">
            <mxPoint x="1085" y="450" as="targetPoint" />
          </mxGeometry>
        </mxCell>
        <mxCell id="wX1Lu-52C3DSgGbVpQo7-3" value="B" style="edgeLabel;html=1;align=center;verticalAlign=middle;resizable=0;points=[];" parent="z4wA7xu3LtJDyuMt949T-466" connectable="0" vertex="1">
          <mxGeometry x="0.9202" y="-1" relative="1" as="geometry">
            <mxPoint as="offset" />
          </mxGeometry>
        </mxCell>
        <mxCell id="z4wA7xu3LtJDyuMt949T-385" value="PB10" style="strokeWidth=2;html=1;shape=mxgraph.flowchart.delay;whiteSpace=wrap;rotation=0;" parent="1" vertex="1">
          <mxGeometry x="1330" y="260" width="40" height="20" as="geometry" />
        </mxCell>
        <mxCell id="z4wA7xu3LtJDyuMt949T-467" style="edgeStyle=orthogonalEdgeStyle;rounded=0;orthogonalLoop=1;jettySize=auto;html=1;exitX=0;exitY=0.5;exitDx=0;exitDy=0;exitPerimeter=0;entryX=0;entryY=0.5;entryDx=0;entryDy=0;entryPerimeter=0;endArrow=none;endFill=0;" parent="1" source="z4wA7xu3LtJDyuMt949T-386" target="z4wA7xu3LtJDyuMt949T-474" edge="1">
          <mxGeometry relative="1" as="geometry">
            <mxPoint x="1120" y="440" as="targetPoint" />
          </mxGeometry>
        </mxCell>
        <mxCell id="wX1Lu-52C3DSgGbVpQo7-4" value="C" style="edgeLabel;html=1;align=center;verticalAlign=middle;resizable=0;points=[];" parent="z4wA7xu3LtJDyuMt949T-467" connectable="0" vertex="1">
          <mxGeometry x="0.9021" relative="1" as="geometry">
            <mxPoint x="-1" y="1" as="offset" />
          </mxGeometry>
        </mxCell>
        <mxCell id="z4wA7xu3LtJDyuMt949T-386" value="PB11" style="strokeWidth=2;html=1;shape=mxgraph.flowchart.delay;whiteSpace=wrap;rotation=0;" parent="1" vertex="1">
          <mxGeometry x="1330" y="290" width="40" height="20" as="geometry" />
        </mxCell>
        <mxCell id="z4wA7xu3LtJDyuMt949T-468" style="edgeStyle=orthogonalEdgeStyle;rounded=0;orthogonalLoop=1;jettySize=auto;html=1;exitX=0;exitY=0.5;exitDx=0;exitDy=0;exitPerimeter=0;entryX=0;entryY=0.5;entryDx=0;entryDy=0;entryPerimeter=0;endArrow=none;endFill=0;" parent="1" source="z4wA7xu3LtJDyuMt949T-387" target="z4wA7xu3LtJDyuMt949T-475" edge="1">
          <mxGeometry relative="1" as="geometry">
            <mxPoint x="1150" y="440" as="targetPoint" />
          </mxGeometry>
        </mxCell>
        <mxCell id="wX1Lu-52C3DSgGbVpQo7-5" value="D" style="edgeLabel;html=1;align=center;verticalAlign=middle;resizable=0;points=[];" parent="z4wA7xu3LtJDyuMt949T-468" connectable="0" vertex="1">
          <mxGeometry x="0.8993" y="-1" relative="1" as="geometry">
            <mxPoint as="offset" />
          </mxGeometry>
        </mxCell>
        <mxCell id="z4wA7xu3LtJDyuMt949T-387" value="PB12" style="strokeWidth=2;html=1;shape=mxgraph.flowchart.delay;whiteSpace=wrap;rotation=0;" parent="1" vertex="1">
          <mxGeometry x="1330" y="316.88" width="40" height="20" as="geometry" />
        </mxCell>
        <mxCell id="z4wA7xu3LtJDyuMt949T-469" style="edgeStyle=orthogonalEdgeStyle;rounded=0;orthogonalLoop=1;jettySize=auto;html=1;exitX=0;exitY=0.5;exitDx=0;exitDy=0;exitPerimeter=0;entryX=0;entryY=0.5;entryDx=0;entryDy=0;entryPerimeter=0;endArrow=none;endFill=0;" parent="1" target="z4wA7xu3LtJDyuMt949T-476" edge="1">
          <mxGeometry relative="1" as="geometry">
            <mxPoint x="1175.03" y="460" as="targetPoint" />
            <mxPoint x="1330.03" y="356.87" as="sourcePoint" />
            <Array as="points">
              <mxPoint x="1135" y="357" />
            </Array>
          </mxGeometry>
        </mxCell>
        <mxCell id="wX1Lu-52C3DSgGbVpQo7-6" value="E" style="edgeLabel;html=1;align=center;verticalAlign=middle;resizable=0;points=[];" parent="z4wA7xu3LtJDyuMt949T-469" connectable="0" vertex="1">
          <mxGeometry x="0.8867" y="-1" relative="1" as="geometry">
            <mxPoint as="offset" />
          </mxGeometry>
        </mxCell>
        <mxCell id="z4wA7xu3LtJDyuMt949T-388" value="PB13" style="strokeWidth=2;html=1;shape=mxgraph.flowchart.delay;whiteSpace=wrap;rotation=0;" parent="1" vertex="1">
          <mxGeometry x="1330" y="346.87" width="40" height="20" as="geometry" />
        </mxCell>
        <mxCell id="z4wA7xu3LtJDyuMt949T-470" style="edgeStyle=orthogonalEdgeStyle;rounded=0;orthogonalLoop=1;jettySize=auto;html=1;exitX=0;exitY=0.5;exitDx=0;exitDy=0;exitPerimeter=0;entryX=0;entryY=0.5;entryDx=0;entryDy=0;entryPerimeter=0;endArrow=none;endFill=0;" parent="1" source="z4wA7xu3LtJDyuMt949T-389" target="z4wA7xu3LtJDyuMt949T-477" edge="1">
          <mxGeometry relative="1" as="geometry">
            <mxPoint x="1200" y="440" as="targetPoint" />
          </mxGeometry>
        </mxCell>
        <mxCell id="wX1Lu-52C3DSgGbVpQo7-7" value="F" style="edgeLabel;html=1;align=center;verticalAlign=middle;resizable=0;points=[];" parent="z4wA7xu3LtJDyuMt949T-470" connectable="0" vertex="1">
          <mxGeometry x="0.8486" relative="1" as="geometry">
            <mxPoint as="offset" />
          </mxGeometry>
        </mxCell>
        <mxCell id="z4wA7xu3LtJDyuMt949T-389" value="PB14" style="strokeWidth=2;html=1;shape=mxgraph.flowchart.delay;whiteSpace=wrap;rotation=0;" parent="1" vertex="1">
          <mxGeometry x="1330" y="376.88" width="40" height="20" as="geometry" />
        </mxCell>
        <mxCell id="z4wA7xu3LtJDyuMt949T-471" style="edgeStyle=orthogonalEdgeStyle;rounded=0;orthogonalLoop=1;jettySize=auto;html=1;exitX=0;exitY=0.5;exitDx=0;exitDy=0;exitPerimeter=0;entryX=0;entryY=0.5;entryDx=0;entryDy=0;entryPerimeter=0;endArrow=none;endFill=0;" parent="1" source="z4wA7xu3LtJDyuMt949T-390" target="z4wA7xu3LtJDyuMt949T-478" edge="1">
          <mxGeometry relative="1" as="geometry">
            <mxPoint x="1230" y="440" as="targetPoint" />
          </mxGeometry>
        </mxCell>
        <mxCell id="wX1Lu-52C3DSgGbVpQo7-9" value="G" style="edgeLabel;html=1;align=center;verticalAlign=middle;resizable=0;points=[];" parent="z4wA7xu3LtJDyuMt949T-471" connectable="0" vertex="1">
          <mxGeometry x="0.801" relative="1" as="geometry">
            <mxPoint as="offset" />
          </mxGeometry>
        </mxCell>
        <mxCell id="z4wA7xu3LtJDyuMt949T-390" value="PB15" style="strokeWidth=2;html=1;shape=mxgraph.flowchart.delay;whiteSpace=wrap;rotation=0;" parent="1" vertex="1">
          <mxGeometry x="1330" y="403.75" width="40" height="20" as="geometry" />
        </mxCell>
        <mxCell id="z4wA7xu3LtJDyuMt949T-391" value="PC0" style="strokeWidth=2;html=1;shape=mxgraph.flowchart.delay;whiteSpace=wrap;rotation=0;" parent="1" vertex="1">
          <mxGeometry x="1330" y="443.75" width="40" height="20" as="geometry" />
        </mxCell>
        <mxCell id="z4wA7xu3LtJDyuMt949T-392" value="PC1" style="strokeWidth=2;html=1;shape=mxgraph.flowchart.delay;whiteSpace=wrap;rotation=0;" parent="1" vertex="1">
          <mxGeometry x="1330" y="470.63" width="40" height="20" as="geometry" />
        </mxCell>
        <mxCell id="z4wA7xu3LtJDyuMt949T-393" value="PC2" style="strokeWidth=2;html=1;shape=mxgraph.flowchart.delay;whiteSpace=wrap;rotation=0;" parent="1" vertex="1">
          <mxGeometry x="1330" y="497.5" width="40" height="20" as="geometry" />
        </mxCell>
        <mxCell id="z4wA7xu3LtJDyuMt949T-394" value="PC3" style="strokeWidth=2;html=1;shape=mxgraph.flowchart.delay;whiteSpace=wrap;rotation=0;" parent="1" vertex="1">
          <mxGeometry x="1330" y="523.75" width="40" height="20" as="geometry" />
        </mxCell>
        <mxCell id="z4wA7xu3LtJDyuMt949T-507" style="edgeStyle=orthogonalEdgeStyle;rounded=0;orthogonalLoop=1;jettySize=auto;html=1;exitX=0;exitY=0.5;exitDx=0;exitDy=0;exitPerimeter=0;entryX=0;entryY=0.5;entryDx=0;entryDy=0;entryPerimeter=0;endArrow=none;endFill=0;" parent="1" source="z4wA7xu3LtJDyuMt949T-398" target="z4wA7xu3LtJDyuMt949T-454" edge="1">
          <mxGeometry relative="1" as="geometry">
            <mxPoint x="1880" y="630" as="targetPoint" />
            <Array as="points">
              <mxPoint x="1720" y="539" />
              <mxPoint x="1720" y="710" />
              <mxPoint x="1920" y="710" />
              <mxPoint x="1920" y="620" />
            </Array>
          </mxGeometry>
        </mxCell>
        <mxCell id="z4wA7xu3LtJDyuMt949T-398" value="PC10" style="strokeWidth=2;html=1;shape=mxgraph.flowchart.delay;whiteSpace=wrap;rotation=0;direction=west;" parent="1" vertex="1">
          <mxGeometry x="1610" y="528.75" width="40" height="20" as="geometry" />
        </mxCell>
        <mxCell id="z4wA7xu3LtJDyuMt949T-399" value="PA0" style="strokeWidth=2;html=1;shape=mxgraph.flowchart.delay;whiteSpace=wrap;rotation=0;" parent="1" vertex="1">
          <mxGeometry x="1330" y="607.18" width="40" height="20" as="geometry" />
        </mxCell>
        <mxCell id="z4wA7xu3LtJDyuMt949T-400" value="PA1" style="strokeWidth=2;html=1;shape=mxgraph.flowchart.delay;whiteSpace=wrap;rotation=0;" parent="1" vertex="1">
          <mxGeometry x="1330" y="637.18" width="40" height="20" as="geometry" />
        </mxCell>
        <mxCell id="z4wA7xu3LtJDyuMt949T-401" value="PA11" style="strokeWidth=2;html=1;shape=mxgraph.flowchart.delay;whiteSpace=wrap;rotation=0;" parent="1" vertex="1">
          <mxGeometry x="1330" y="667.79" width="40" height="20" as="geometry" />
        </mxCell>
        <mxCell id="z4wA7xu3LtJDyuMt949T-402" value="PA5" style="strokeWidth=2;html=1;shape=mxgraph.flowchart.delay;whiteSpace=wrap;rotation=0;" parent="1" vertex="1">
          <mxGeometry x="1330" y="700.92" width="40" height="20" as="geometry" />
        </mxCell>
        <mxCell id="z4wA7xu3LtJDyuMt949T-403" value="PA12" style="strokeWidth=2;html=1;shape=mxgraph.flowchart.delay;whiteSpace=wrap;rotation=-90;" parent="1" vertex="1">
          <mxGeometry x="1330" y="800" width="40" height="20" as="geometry" />
        </mxCell>
        <mxCell id="z4wA7xu3LtJDyuMt949T-404" value="PB3" style="strokeWidth=2;html=1;shape=mxgraph.flowchart.delay;whiteSpace=wrap;rotation=0;direction=west;" parent="1" vertex="1">
          <mxGeometry x="1610" y="607.18" width="40" height="20" as="geometry" />
        </mxCell>
        <mxCell id="z4wA7xu3LtJDyuMt949T-405" value="PB4" style="strokeWidth=2;html=1;shape=mxgraph.flowchart.delay;whiteSpace=wrap;rotation=0;direction=west;" parent="1" vertex="1">
          <mxGeometry x="1610" y="637.79" width="40" height="20" as="geometry" />
        </mxCell>
        <mxCell id="z4wA7xu3LtJDyuMt949T-406" value="PB5" style="strokeWidth=2;html=1;shape=mxgraph.flowchart.delay;whiteSpace=wrap;rotation=0;direction=west;" parent="1" vertex="1">
          <mxGeometry x="1610" y="670.92" width="40" height="20" as="geometry" />
        </mxCell>
        <mxCell id="z4wA7xu3LtJDyuMt949T-407" value="PB6" style="strokeWidth=2;html=1;shape=mxgraph.flowchart.delay;whiteSpace=wrap;rotation=0;direction=west;" parent="1" vertex="1">
          <mxGeometry x="1610" y="697.79" width="40" height="20" as="geometry" />
        </mxCell>
        <mxCell id="z4wA7xu3LtJDyuMt949T-408" value="PB7" style="strokeWidth=2;html=1;shape=mxgraph.flowchart.delay;whiteSpace=wrap;rotation=0;direction=west;" parent="1" vertex="1">
          <mxGeometry x="1610" y="727.18" width="40" height="20" as="geometry" />
        </mxCell>
        <mxCell id="z4wA7xu3LtJDyuMt949T-409" value="PB8" style="strokeWidth=2;html=1;shape=mxgraph.flowchart.delay;whiteSpace=wrap;rotation=0;direction=west;" parent="1" vertex="1">
          <mxGeometry x="1610" y="757.79" width="40" height="20" as="geometry" />
        </mxCell>
        <mxCell id="z4wA7xu3LtJDyuMt949T-411" value="PB9" style="strokeWidth=2;html=1;shape=mxgraph.flowchart.delay;whiteSpace=wrap;rotation=0;direction=west;" parent="1" vertex="1">
          <mxGeometry x="1610" y="787.18" width="40" height="20" as="geometry" />
        </mxCell>
        <mxCell id="z4wA7xu3LtJDyuMt949T-448" value="" style="group" parent="1" vertex="1" connectable="0">
          <mxGeometry x="992" y="510" width="210" height="150" as="geometry" />
        </mxCell>
        <mxCell id="z4wA7xu3LtJDyuMt949T-444" value="" style="pointerEvents=1;verticalLabelPosition=bottom;shadow=0;dashed=0;align=center;html=1;verticalAlign=top;shape=mxgraph.electrical.signal_sources.signal_ground;" parent="z4wA7xu3LtJDyuMt949T-448" vertex="1">
          <mxGeometry x="13.999999999999998" y="130.6176470588235" width="27.999999999999996" height="18.522352941176468" as="geometry" />
        </mxCell>
        <mxCell id="z4wA7xu3LtJDyuMt949T-445" value="" style="pointerEvents=1;verticalLabelPosition=bottom;shadow=0;dashed=0;align=center;html=1;verticalAlign=top;shape=mxgraph.electrical.signal_sources.signal_ground;" parent="z4wA7xu3LtJDyuMt949T-448" vertex="1">
          <mxGeometry x="70.00000000000001" y="130.61647058823527" width="27.999999999999996" height="18.522352941176468" as="geometry" />
        </mxCell>
        <mxCell id="z4wA7xu3LtJDyuMt949T-446" value="" style="pointerEvents=1;verticalLabelPosition=bottom;shadow=0;dashed=0;align=center;html=1;verticalAlign=top;shape=mxgraph.electrical.signal_sources.signal_ground;" parent="z4wA7xu3LtJDyuMt949T-448" vertex="1">
          <mxGeometry x="126.00000000000001" y="131.47764705882352" width="27.999999999999996" height="18.522352941176468" as="geometry" />
        </mxCell>
        <mxCell id="z4wA7xu3LtJDyuMt949T-447" value="" style="pointerEvents=1;verticalLabelPosition=bottom;shadow=0;dashed=0;align=center;html=1;verticalAlign=top;shape=mxgraph.electrical.signal_sources.signal_ground;" parent="z4wA7xu3LtJDyuMt949T-448" vertex="1">
          <mxGeometry x="182" y="131.47764705882352" width="27.999999999999996" height="18.522352941176468" as="geometry" />
        </mxCell>
        <mxCell id="z4wA7xu3LtJDyuMt949T-428" value="" style="verticalLabelPosition=bottom;shadow=0;dashed=0;align=center;html=1;verticalAlign=top;shape=mxgraph.electrical.transistors.npn_transistor_5;container=0;" parent="z4wA7xu3LtJDyuMt949T-448" vertex="1">
          <mxGeometry x="168.00000000000003" y="79.41176470588236" width="27.999999999999996" height="60.87529411764706" as="geometry" />
        </mxCell>
        <mxCell id="z4wA7xu3LtJDyuMt949T-430" value="" style="verticalLabelPosition=bottom;shadow=0;dashed=0;align=center;html=1;verticalAlign=top;shape=mxgraph.electrical.transistors.npn_transistor_5;container=0;" parent="z4wA7xu3LtJDyuMt949T-448" vertex="1">
          <mxGeometry y="81.61411764705882" width="27.999999999999996" height="53.81647058823529" as="geometry" />
        </mxCell>
        <mxCell id="z4wA7xu3LtJDyuMt949T-413" value="" style="rounded=0;whiteSpace=wrap;html=1;container=0;" parent="z4wA7xu3LtJDyuMt949T-448" vertex="1">
          <mxGeometry x="13.999999999999998" width="196.00000000000003" height="84.70588235294117" as="geometry" />
        </mxCell>
        <mxCell id="z4wA7xu3LtJDyuMt949T-412" value="" style="verticalLabelPosition=bottom;shadow=0;dashed=0;align=center;html=1;verticalAlign=top;shape=mxgraph.electrical.opto_electronics.7_segment_display;pointerEvents=1;container=0;" parent="z4wA7xu3LtJDyuMt949T-448" vertex="1">
          <mxGeometry x="27.999999999999996" y="15.995294117647036" width="42.00000000000001" height="52.72941176470589" as="geometry" />
        </mxCell>
        <mxCell id="z4wA7xu3LtJDyuMt949T-414" value="" style="verticalLabelPosition=bottom;shadow=0;dashed=0;align=center;html=1;verticalAlign=top;shape=mxgraph.electrical.opto_electronics.7_segment_display;pointerEvents=1;container=0;" parent="z4wA7xu3LtJDyuMt949T-448" vertex="1">
          <mxGeometry x="70.00000000000001" y="15.995294117647036" width="42.00000000000001" height="52.72941176470589" as="geometry" />
        </mxCell>
        <mxCell id="z4wA7xu3LtJDyuMt949T-415" value="" style="verticalLabelPosition=bottom;shadow=0;dashed=0;align=center;html=1;verticalAlign=top;shape=mxgraph.electrical.opto_electronics.7_segment_display;pointerEvents=1;container=0;" parent="z4wA7xu3LtJDyuMt949T-448" vertex="1">
          <mxGeometry x="111.99999999999999" y="15.995294117647036" width="42.00000000000001" height="52.72941176470589" as="geometry" />
        </mxCell>
        <mxCell id="z4wA7xu3LtJDyuMt949T-416" value="" style="verticalLabelPosition=bottom;shadow=0;dashed=0;align=center;html=1;verticalAlign=top;shape=mxgraph.electrical.opto_electronics.7_segment_display;pointerEvents=1;container=0;" parent="z4wA7xu3LtJDyuMt949T-448" vertex="1">
          <mxGeometry x="154.00000000000003" y="15.995294117647036" width="42.00000000000001" height="52.72941176470589" as="geometry" />
        </mxCell>
        <mxCell id="z4wA7xu3LtJDyuMt949T-426" value="" style="verticalLabelPosition=bottom;shadow=0;dashed=0;align=center;html=1;verticalAlign=top;shape=mxgraph.electrical.transistors.npn_transistor_5;container=0;" parent="z4wA7xu3LtJDyuMt949T-448" vertex="1">
          <mxGeometry x="111.99999999999999" y="81.61411764705882" width="27.999999999999996" height="56.470588235294116" as="geometry" />
        </mxCell>
        <mxCell id="z4wA7xu3LtJDyuMt949T-429" value="" style="verticalLabelPosition=bottom;shadow=0;dashed=0;align=center;html=1;verticalAlign=top;shape=mxgraph.electrical.transistors.npn_transistor_5;container=0;" parent="z4wA7xu3LtJDyuMt949T-448" vertex="1">
          <mxGeometry x="55.99999999999999" y="75.88235294117648" width="27.999999999999996" height="65.29411764705883" as="geometry" />
        </mxCell>
        <mxCell id="wX1Lu-52C3DSgGbVpQo7-11" value="&lt;font style=&quot;font-size: 7px;&quot;&gt;Digit1&lt;/font&gt;" style="text;html=1;align=center;verticalAlign=middle;whiteSpace=wrap;rounded=0;" parent="z4wA7xu3LtJDyuMt949T-448" vertex="1">
          <mxGeometry x="22" y="88.86" width="28" height="21.14" as="geometry" />
        </mxCell>
        <mxCell id="wX1Lu-52C3DSgGbVpQo7-12" value="&lt;font style=&quot;font-size: 7px;&quot;&gt;Digit2&lt;/font&gt;" style="text;html=1;align=center;verticalAlign=middle;whiteSpace=wrap;rounded=0;" parent="z4wA7xu3LtJDyuMt949T-448" vertex="1">
          <mxGeometry x="86" y="88.86000000000001" width="12" height="15.29" as="geometry" />
        </mxCell>
        <mxCell id="wX1Lu-52C3DSgGbVpQo7-13" value="&lt;font style=&quot;font-size: 7px;&quot;&gt;Digit3&lt;/font&gt;" style="text;html=1;align=center;verticalAlign=middle;whiteSpace=wrap;rounded=0;" parent="z4wA7xu3LtJDyuMt949T-448" vertex="1">
          <mxGeometry x="142" y="93.14999999999998" width="12" height="11" as="geometry" />
        </mxCell>
        <mxCell id="wX1Lu-52C3DSgGbVpQo7-14" value="&lt;font style=&quot;font-size: 7px;&quot;&gt;Digit4&lt;/font&gt;" style="text;html=1;align=center;verticalAlign=middle;whiteSpace=wrap;rounded=0;" parent="z4wA7xu3LtJDyuMt949T-448" vertex="1">
          <mxGeometry x="196" y="93.14999999999998" width="12" height="11" as="geometry" />
        </mxCell>
        <mxCell id="z4wA7xu3LtJDyuMt949T-472" value="" style="pointerEvents=1;verticalLabelPosition=bottom;shadow=0;dashed=0;align=center;html=1;verticalAlign=top;shape=mxgraph.electrical.resistors.resistor_2;direction=south;" parent="1" vertex="1">
          <mxGeometry x="1010" y="460" width="10" height="50" as="geometry" />
        </mxCell>
        <mxCell id="z4wA7xu3LtJDyuMt949T-473" value="" style="pointerEvents=1;verticalLabelPosition=bottom;shadow=0;dashed=0;align=center;html=1;verticalAlign=top;shape=mxgraph.electrical.resistors.resistor_2;direction=south;" parent="1" vertex="1">
          <mxGeometry x="1040" y="460" width="10" height="50" as="geometry" />
        </mxCell>
        <mxCell id="z4wA7xu3LtJDyuMt949T-474" value="" style="pointerEvents=1;verticalLabelPosition=bottom;shadow=0;dashed=0;align=center;html=1;verticalAlign=top;shape=mxgraph.electrical.resistors.resistor_2;direction=south;" parent="1" vertex="1">
          <mxGeometry x="1070" y="460" width="10" height="50" as="geometry" />
        </mxCell>
        <mxCell id="z4wA7xu3LtJDyuMt949T-475" value="" style="pointerEvents=1;verticalLabelPosition=bottom;shadow=0;dashed=0;align=center;html=1;verticalAlign=top;shape=mxgraph.electrical.resistors.resistor_2;direction=south;" parent="1" vertex="1">
          <mxGeometry x="1100" y="460" width="10" height="50" as="geometry" />
        </mxCell>
        <mxCell id="z4wA7xu3LtJDyuMt949T-476" value="" style="pointerEvents=1;verticalLabelPosition=bottom;shadow=0;dashed=0;align=center;html=1;verticalAlign=top;shape=mxgraph.electrical.resistors.resistor_2;direction=south;" parent="1" vertex="1">
          <mxGeometry x="1130" y="460" width="10" height="50" as="geometry" />
        </mxCell>
        <mxCell id="z4wA7xu3LtJDyuMt949T-477" value="" style="pointerEvents=1;verticalLabelPosition=bottom;shadow=0;dashed=0;align=center;html=1;verticalAlign=top;shape=mxgraph.electrical.resistors.resistor_2;direction=south;" parent="1" vertex="1">
          <mxGeometry x="1160" y="460" width="10" height="50" as="geometry" />
        </mxCell>
        <mxCell id="z4wA7xu3LtJDyuMt949T-478" value="" style="pointerEvents=1;verticalLabelPosition=bottom;shadow=0;dashed=0;align=center;html=1;verticalAlign=top;shape=mxgraph.electrical.resistors.resistor_2;direction=south;" parent="1" vertex="1">
          <mxGeometry x="1190" y="460" width="10" height="50" as="geometry" />
        </mxCell>
        <mxCell id="z4wA7xu3LtJDyuMt949T-486" value="" style="group" parent="1" vertex="1" connectable="0">
          <mxGeometry x="1750" y="460" width="210" height="200" as="geometry" />
        </mxCell>
        <mxCell id="z4wA7xu3LtJDyuMt949T-479" value="" style="pointerEvents=1;verticalLabelPosition=bottom;shadow=0;dashed=0;align=center;html=1;verticalAlign=top;shape=mxgraph.electrical.resistors.resistor_2;direction=south;container=0;" parent="z4wA7xu3LtJDyuMt949T-486" vertex="1">
          <mxGeometry x="20" width="10" height="50" as="geometry" />
        </mxCell>
        <mxCell id="z4wA7xu3LtJDyuMt949T-480" value="" style="pointerEvents=1;verticalLabelPosition=bottom;shadow=0;dashed=0;align=center;html=1;verticalAlign=top;shape=mxgraph.electrical.resistors.resistor_2;direction=south;container=0;" parent="z4wA7xu3LtJDyuMt949T-486" vertex="1">
          <mxGeometry x="50" width="10" height="50" as="geometry" />
        </mxCell>
        <mxCell id="z4wA7xu3LtJDyuMt949T-481" value="" style="pointerEvents=1;verticalLabelPosition=bottom;shadow=0;dashed=0;align=center;html=1;verticalAlign=top;shape=mxgraph.electrical.resistors.resistor_2;direction=south;container=0;" parent="z4wA7xu3LtJDyuMt949T-486" vertex="1">
          <mxGeometry x="80" width="10" height="50" as="geometry" />
        </mxCell>
        <mxCell id="z4wA7xu3LtJDyuMt949T-482" value="" style="pointerEvents=1;verticalLabelPosition=bottom;shadow=0;dashed=0;align=center;html=1;verticalAlign=top;shape=mxgraph.electrical.resistors.resistor_2;direction=south;container=0;" parent="z4wA7xu3LtJDyuMt949T-486" vertex="1">
          <mxGeometry x="110" width="10" height="50" as="geometry" />
        </mxCell>
        <mxCell id="z4wA7xu3LtJDyuMt949T-483" value="" style="pointerEvents=1;verticalLabelPosition=bottom;shadow=0;dashed=0;align=center;html=1;verticalAlign=top;shape=mxgraph.electrical.resistors.resistor_2;direction=south;container=0;" parent="z4wA7xu3LtJDyuMt949T-486" vertex="1">
          <mxGeometry x="140" width="10" height="50" as="geometry" />
        </mxCell>
        <mxCell id="z4wA7xu3LtJDyuMt949T-484" value="" style="pointerEvents=1;verticalLabelPosition=bottom;shadow=0;dashed=0;align=center;html=1;verticalAlign=top;shape=mxgraph.electrical.resistors.resistor_2;direction=south;container=0;" parent="z4wA7xu3LtJDyuMt949T-486" vertex="1">
          <mxGeometry x="170" width="10" height="50" as="geometry" />
        </mxCell>
        <mxCell id="z4wA7xu3LtJDyuMt949T-485" value="" style="pointerEvents=1;verticalLabelPosition=bottom;shadow=0;dashed=0;align=center;html=1;verticalAlign=top;shape=mxgraph.electrical.resistors.resistor_2;direction=south;container=0;" parent="z4wA7xu3LtJDyuMt949T-486" vertex="1">
          <mxGeometry x="200" width="10" height="50" as="geometry" />
        </mxCell>
        <mxCell id="z4wA7xu3LtJDyuMt949T-450" value="" style="pointerEvents=1;verticalLabelPosition=bottom;shadow=0;dashed=0;align=center;html=1;verticalAlign=top;shape=mxgraph.electrical.signal_sources.signal_ground;container=0;" parent="z4wA7xu3LtJDyuMt949T-486" vertex="1">
          <mxGeometry x="14" y="181.47764705882355" width="27.999999999999996" height="18.522352941176468" as="geometry" />
        </mxCell>
        <mxCell id="z4wA7xu3LtJDyuMt949T-451" value="" style="pointerEvents=1;verticalLabelPosition=bottom;shadow=0;dashed=0;align=center;html=1;verticalAlign=top;shape=mxgraph.electrical.signal_sources.signal_ground;container=0;" parent="z4wA7xu3LtJDyuMt949T-486" vertex="1">
          <mxGeometry x="70" y="180.6164705882353" width="27.999999999999996" height="18.522352941176468" as="geometry" />
        </mxCell>
        <mxCell id="z4wA7xu3LtJDyuMt949T-452" value="" style="pointerEvents=1;verticalLabelPosition=bottom;shadow=0;dashed=0;align=center;html=1;verticalAlign=top;shape=mxgraph.electrical.signal_sources.signal_ground;container=0;" parent="z4wA7xu3LtJDyuMt949T-486" vertex="1">
          <mxGeometry x="126" y="181.47764705882355" width="27.999999999999996" height="18.522352941176468" as="geometry" />
        </mxCell>
        <mxCell id="z4wA7xu3LtJDyuMt949T-453" value="" style="pointerEvents=1;verticalLabelPosition=bottom;shadow=0;dashed=0;align=center;html=1;verticalAlign=top;shape=mxgraph.electrical.signal_sources.signal_ground;container=0;" parent="z4wA7xu3LtJDyuMt949T-486" vertex="1">
          <mxGeometry x="182" y="181.47764705882355" width="27.999999999999996" height="18.522352941176468" as="geometry" />
        </mxCell>
        <mxCell id="wX1Lu-52C3DSgGbVpQo7-39" style="edgeStyle=orthogonalEdgeStyle;rounded=0;orthogonalLoop=1;jettySize=auto;html=1;exitX=1;exitY=0;exitDx=0;exitDy=0;exitPerimeter=0;" parent="z4wA7xu3LtJDyuMt949T-486" source="z4wA7xu3LtJDyuMt949T-454" edge="1">
          <mxGeometry relative="1" as="geometry">
            <mxPoint x="195.98969072164982" y="137.84536082474233" as="targetPoint" />
          </mxGeometry>
        </mxCell>
        <mxCell id="z4wA7xu3LtJDyuMt949T-454" value="" style="verticalLabelPosition=bottom;shadow=0;dashed=0;align=center;html=1;verticalAlign=top;shape=mxgraph.electrical.transistors.npn_transistor_5;container=0;" parent="z4wA7xu3LtJDyuMt949T-486" vertex="1">
          <mxGeometry x="168" y="129.41176470588238" width="27.999999999999996" height="60.87529411764706" as="geometry" />
        </mxCell>
        <mxCell id="z4wA7xu3LtJDyuMt949T-455" value="" style="verticalLabelPosition=bottom;shadow=0;dashed=0;align=center;html=1;verticalAlign=top;shape=mxgraph.electrical.transistors.npn_transistor_5;container=0;" parent="z4wA7xu3LtJDyuMt949T-486" vertex="1">
          <mxGeometry y="131.61411764705883" width="27.999999999999996" height="53.81647058823529" as="geometry" />
        </mxCell>
        <mxCell id="z4wA7xu3LtJDyuMt949T-456" value="" style="rounded=0;whiteSpace=wrap;html=1;container=0;" parent="z4wA7xu3LtJDyuMt949T-486" vertex="1">
          <mxGeometry x="14" y="50" width="196.00000000000003" height="84.70588235294117" as="geometry" />
        </mxCell>
        <mxCell id="z4wA7xu3LtJDyuMt949T-457" value="" style="verticalLabelPosition=bottom;shadow=0;dashed=0;align=center;html=1;verticalAlign=top;shape=mxgraph.electrical.opto_electronics.7_segment_display;pointerEvents=1;container=0;" parent="z4wA7xu3LtJDyuMt949T-486" vertex="1">
          <mxGeometry x="28" y="65.99529411764706" width="42.00000000000001" height="52.72941176470589" as="geometry" />
        </mxCell>
        <mxCell id="z4wA7xu3LtJDyuMt949T-458" value="" style="verticalLabelPosition=bottom;shadow=0;dashed=0;align=center;html=1;verticalAlign=top;shape=mxgraph.electrical.opto_electronics.7_segment_display;pointerEvents=1;container=0;" parent="z4wA7xu3LtJDyuMt949T-486" vertex="1">
          <mxGeometry x="70" y="65.99529411764706" width="42.00000000000001" height="52.72941176470589" as="geometry" />
        </mxCell>
        <mxCell id="z4wA7xu3LtJDyuMt949T-459" value="" style="verticalLabelPosition=bottom;shadow=0;dashed=0;align=center;html=1;verticalAlign=top;shape=mxgraph.electrical.opto_electronics.7_segment_display;pointerEvents=1;container=0;" parent="z4wA7xu3LtJDyuMt949T-486" vertex="1">
          <mxGeometry x="112" y="65.99529411764706" width="42.00000000000001" height="52.72941176470589" as="geometry" />
        </mxCell>
        <mxCell id="z4wA7xu3LtJDyuMt949T-460" value="" style="verticalLabelPosition=bottom;shadow=0;dashed=0;align=center;html=1;verticalAlign=top;shape=mxgraph.electrical.opto_electronics.7_segment_display;pointerEvents=1;container=0;" parent="z4wA7xu3LtJDyuMt949T-486" vertex="1">
          <mxGeometry x="154" y="65.99529411764706" width="42.00000000000001" height="52.72941176470589" as="geometry" />
        </mxCell>
        <mxCell id="z4wA7xu3LtJDyuMt949T-461" value="" style="verticalLabelPosition=bottom;shadow=0;dashed=0;align=center;html=1;verticalAlign=top;shape=mxgraph.electrical.transistors.npn_transistor_5;container=0;" parent="z4wA7xu3LtJDyuMt949T-486" vertex="1">
          <mxGeometry x="112" y="131.61411764705883" width="27.999999999999996" height="56.470588235294116" as="geometry" />
        </mxCell>
        <mxCell id="z4wA7xu3LtJDyuMt949T-462" value="" style="verticalLabelPosition=bottom;shadow=0;dashed=0;align=center;html=1;verticalAlign=top;shape=mxgraph.electrical.transistors.npn_transistor_5;container=0;" parent="z4wA7xu3LtJDyuMt949T-486" vertex="1">
          <mxGeometry x="56" y="125.88235294117646" width="27.999999999999996" height="65.29411764705883" as="geometry" />
        </mxCell>
        <mxCell id="z4wA7xu3LtJDyuMt949T-487" style="edgeStyle=orthogonalEdgeStyle;rounded=0;orthogonalLoop=1;jettySize=auto;html=1;exitX=0;exitY=0.5;exitDx=0;exitDy=0;exitPerimeter=0;entryX=0;entryY=0.5;entryDx=0;entryDy=0;entryPerimeter=0;endArrow=none;endFill=0;" parent="1" source="z4wA7xu3LtJDyuMt949T-370" target="z4wA7xu3LtJDyuMt949T-485" edge="1">
          <mxGeometry relative="1" as="geometry" />
        </mxCell>
        <mxCell id="z4wA7xu3LtJDyuMt949T-488" style="edgeStyle=orthogonalEdgeStyle;rounded=0;orthogonalLoop=1;jettySize=auto;html=1;exitX=0;exitY=0.5;exitDx=0;exitDy=0;exitPerimeter=0;entryX=0;entryY=0.5;entryDx=0;entryDy=0;entryPerimeter=0;endArrow=none;endFill=0;" parent="1" source="z4wA7xu3LtJDyuMt949T-371" target="z4wA7xu3LtJDyuMt949T-484" edge="1">
          <mxGeometry relative="1" as="geometry" />
        </mxCell>
        <mxCell id="z4wA7xu3LtJDyuMt949T-489" style="edgeStyle=orthogonalEdgeStyle;rounded=0;orthogonalLoop=1;jettySize=auto;html=1;exitX=0;exitY=0.5;exitDx=0;exitDy=0;exitPerimeter=0;entryX=0;entryY=0.5;entryDx=0;entryDy=0;entryPerimeter=0;endArrow=none;endFill=0;" parent="1" source="z4wA7xu3LtJDyuMt949T-372" target="z4wA7xu3LtJDyuMt949T-483" edge="1">
          <mxGeometry relative="1" as="geometry" />
        </mxCell>
        <mxCell id="z4wA7xu3LtJDyuMt949T-490" style="edgeStyle=orthogonalEdgeStyle;rounded=0;orthogonalLoop=1;jettySize=auto;html=1;exitX=0;exitY=0.5;exitDx=0;exitDy=0;exitPerimeter=0;entryX=0;entryY=0.5;entryDx=0;entryDy=0;entryPerimeter=0;endArrow=none;endFill=0;" parent="1" source="z4wA7xu3LtJDyuMt949T-373" target="z4wA7xu3LtJDyuMt949T-482" edge="1">
          <mxGeometry relative="1" as="geometry" />
        </mxCell>
        <mxCell id="z4wA7xu3LtJDyuMt949T-491" style="edgeStyle=orthogonalEdgeStyle;rounded=0;orthogonalLoop=1;jettySize=auto;html=1;exitX=0;exitY=0.5;exitDx=0;exitDy=0;exitPerimeter=0;entryX=0;entryY=0.5;entryDx=0;entryDy=0;entryPerimeter=0;endArrow=none;endFill=0;" parent="1" source="z4wA7xu3LtJDyuMt949T-374" target="z4wA7xu3LtJDyuMt949T-481" edge="1">
          <mxGeometry relative="1" as="geometry" />
        </mxCell>
        <mxCell id="z4wA7xu3LtJDyuMt949T-492" style="edgeStyle=orthogonalEdgeStyle;rounded=0;orthogonalLoop=1;jettySize=auto;html=1;exitX=0;exitY=0.5;exitDx=0;exitDy=0;exitPerimeter=0;entryX=0;entryY=0.5;entryDx=0;entryDy=0;entryPerimeter=0;endArrow=none;endFill=0;" parent="1" source="z4wA7xu3LtJDyuMt949T-377" target="z4wA7xu3LtJDyuMt949T-480" edge="1">
          <mxGeometry relative="1" as="geometry" />
        </mxCell>
        <mxCell id="z4wA7xu3LtJDyuMt949T-493" style="edgeStyle=orthogonalEdgeStyle;rounded=0;orthogonalLoop=1;jettySize=auto;html=1;exitX=0;exitY=0.5;exitDx=0;exitDy=0;exitPerimeter=0;entryX=0;entryY=0.5;entryDx=0;entryDy=0;entryPerimeter=0;endArrow=none;endFill=0;" parent="1" source="z4wA7xu3LtJDyuMt949T-378" target="z4wA7xu3LtJDyuMt949T-479" edge="1">
          <mxGeometry relative="1" as="geometry" />
        </mxCell>
        <mxCell id="z4wA7xu3LtJDyuMt949T-495" value="" style="pointerEvents=1;verticalLabelPosition=bottom;shadow=0;dashed=0;align=center;html=1;verticalAlign=top;shape=mxgraph.electrical.resistors.resistor_2;" parent="1" vertex="1">
          <mxGeometry x="1290" y="444.39" width="40" height="10.92" as="geometry" />
        </mxCell>
        <mxCell id="z4wA7xu3LtJDyuMt949T-496" value="" style="pointerEvents=1;verticalLabelPosition=bottom;shadow=0;dashed=0;align=center;html=1;verticalAlign=top;shape=mxgraph.electrical.resistors.resistor_2;" parent="1" vertex="1">
          <mxGeometry x="1290" y="475.17" width="40" height="10.92" as="geometry" />
        </mxCell>
        <mxCell id="z4wA7xu3LtJDyuMt949T-501" style="edgeStyle=orthogonalEdgeStyle;rounded=0;orthogonalLoop=1;jettySize=auto;html=1;exitX=0;exitY=0.5;exitDx=0;exitDy=0;exitPerimeter=0;entryX=0.286;entryY=0.503;entryDx=0;entryDy=0;entryPerimeter=0;endArrow=none;endFill=0;" parent="1" source="z4wA7xu3LtJDyuMt949T-497" target="z4wA7xu3LtJDyuMt949T-426" edge="1">
          <mxGeometry relative="1" as="geometry">
            <mxPoint x="1100" y="620" as="targetPoint" />
            <Array as="points">
              <mxPoint x="1260" y="507" />
              <mxPoint x="1260" y="730" />
              <mxPoint x="1100" y="730" />
              <mxPoint x="1100" y="620" />
            </Array>
          </mxGeometry>
        </mxCell>
        <mxCell id="z4wA7xu3LtJDyuMt949T-497" value="" style="pointerEvents=1;verticalLabelPosition=bottom;shadow=0;dashed=0;align=center;html=1;verticalAlign=top;shape=mxgraph.electrical.resistors.resistor_2;" parent="1" vertex="1">
          <mxGeometry x="1290" y="502.04" width="40" height="10.92" as="geometry" />
        </mxCell>
        <mxCell id="z4wA7xu3LtJDyuMt949T-502" style="edgeStyle=orthogonalEdgeStyle;rounded=0;orthogonalLoop=1;jettySize=auto;html=1;exitX=0;exitY=0.5;exitDx=0;exitDy=0;exitPerimeter=0;endArrow=none;endFill=0;" parent="1" source="z4wA7xu3LtJDyuMt949T-498" edge="1">
          <mxGeometry relative="1" as="geometry">
            <mxPoint x="1160" y="620" as="targetPoint" />
            <Array as="points">
              <mxPoint x="1280" y="535" />
              <mxPoint x="1280" y="710" />
              <mxPoint x="1160" y="710" />
            </Array>
          </mxGeometry>
        </mxCell>
        <mxCell id="z4wA7xu3LtJDyuMt949T-498" value="" style="pointerEvents=1;verticalLabelPosition=bottom;shadow=0;dashed=0;align=center;html=1;verticalAlign=top;shape=mxgraph.electrical.resistors.resistor_2;" parent="1" vertex="1">
          <mxGeometry x="1290" y="529.08" width="40" height="10.92" as="geometry" />
        </mxCell>
        <mxCell id="z4wA7xu3LtJDyuMt949T-499" style="edgeStyle=orthogonalEdgeStyle;rounded=0;orthogonalLoop=1;jettySize=auto;html=1;exitX=0;exitY=0.5;exitDx=0;exitDy=0;exitPerimeter=0;endArrow=none;endFill=0;" parent="1" edge="1">
          <mxGeometry relative="1" as="geometry">
            <mxPoint x="1295.02" y="450.03" as="sourcePoint" />
            <mxPoint x="992" y="619" as="targetPoint" />
            <Array as="points">
              <mxPoint x="1225" y="450" />
              <mxPoint x="1225" y="769" />
              <mxPoint x="990" y="769" />
              <mxPoint x="990" y="617" />
            </Array>
          </mxGeometry>
        </mxCell>
        <mxCell id="z4wA7xu3LtJDyuMt949T-500" style="edgeStyle=orthogonalEdgeStyle;rounded=0;orthogonalLoop=1;jettySize=auto;html=1;exitX=0;exitY=0.5;exitDx=0;exitDy=0;exitPerimeter=0;entryX=0;entryY=0.5;entryDx=0;entryDy=0;entryPerimeter=0;endArrow=none;endFill=0;" parent="1" source="z4wA7xu3LtJDyuMt949T-496" target="z4wA7xu3LtJDyuMt949T-429" edge="1">
          <mxGeometry relative="1" as="geometry">
            <Array as="points">
              <mxPoint x="1240" y="481" />
              <mxPoint x="1240" y="750" />
              <mxPoint x="1040" y="750" />
              <mxPoint x="1040" y="619" />
            </Array>
          </mxGeometry>
        </mxCell>
        <mxCell id="z4wA7xu3LtJDyuMt949T-530" value="" style="endArrow=none;html=1;rounded=0;entryX=0;entryY=0.5;entryDx=0;entryDy=0;entryPerimeter=0;exitX=0;exitY=0.8;exitDx=0;exitDy=0;" parent="1" source="z4wA7xu3LtJDyuMt949T-513" target="z4wA7xu3LtJDyuMt949T-399" edge="1">
          <mxGeometry width="50" height="50" relative="1" as="geometry">
            <mxPoint x="1290" y="1050" as="sourcePoint" />
            <mxPoint x="1340" y="780" as="targetPoint" />
            <Array as="points">
              <mxPoint x="1290" y="986" />
              <mxPoint x="1290" y="617" />
            </Array>
          </mxGeometry>
        </mxCell>
        <mxCell id="z4wA7xu3LtJDyuMt949T-531" value="" style="endArrow=none;html=1;rounded=0;entryX=0;entryY=0.5;entryDx=0;entryDy=0;entryPerimeter=0;exitX=0;exitY=0.8;exitDx=0;exitDy=0;" parent="1" source="z4wA7xu3LtJDyuMt949T-514" target="z4wA7xu3LtJDyuMt949T-400" edge="1">
          <mxGeometry width="50" height="50" relative="1" as="geometry">
            <mxPoint x="1300" y="1020" as="sourcePoint" />
            <mxPoint x="1320" y="650" as="targetPoint" />
            <Array as="points">
              <mxPoint x="1300" y="956" />
              <mxPoint x="1300" y="647" />
            </Array>
          </mxGeometry>
        </mxCell>
        <mxCell id="z4wA7xu3LtJDyuMt949T-532" value="" style="endArrow=none;html=1;rounded=0;entryX=0;entryY=0.5;entryDx=0;entryDy=0;entryPerimeter=0;exitX=0;exitY=0.8;exitDx=0;exitDy=0;" parent="1" source="z4wA7xu3LtJDyuMt949T-512" target="z4wA7xu3LtJDyuMt949T-401" edge="1">
          <mxGeometry width="50" height="50" relative="1" as="geometry">
            <mxPoint x="1320" y="980" as="sourcePoint" />
            <mxPoint x="1310" y="680" as="targetPoint" />
            <Array as="points">
              <mxPoint x="1310" y="926" />
              <mxPoint x="1310" y="678" />
            </Array>
          </mxGeometry>
        </mxCell>
        <mxCell id="z4wA7xu3LtJDyuMt949T-533" value="" style="endArrow=none;html=1;rounded=0;entryX=0;entryY=0.5;entryDx=0;entryDy=0;entryPerimeter=0;exitX=0;exitY=0.8;exitDx=0;exitDy=0;" parent="1" source="z4wA7xu3LtJDyuMt949T-511" target="z4wA7xu3LtJDyuMt949T-402" edge="1">
          <mxGeometry width="50" height="50" relative="1" as="geometry">
            <mxPoint x="1330" y="940" as="sourcePoint" />
            <mxPoint x="1320" y="710" as="targetPoint" />
            <Array as="points">
              <mxPoint x="1320" y="896" />
              <mxPoint x="1320" y="711" />
            </Array>
          </mxGeometry>
        </mxCell>
        <mxCell id="z4wA7xu3LtJDyuMt949T-535" value="" style="endArrow=none;html=1;rounded=0;entryX=0;entryY=0.5;entryDx=0;entryDy=0;entryPerimeter=0;exitX=0;exitY=0.8;exitDx=0;exitDy=0;" parent="1" source="z4wA7xu3LtJDyuMt949T-510" target="z4wA7xu3LtJDyuMt949T-403" edge="1">
          <mxGeometry width="50" height="50" relative="1" as="geometry">
            <mxPoint x="1290" y="920" as="sourcePoint" />
            <mxPoint x="1340" y="870" as="targetPoint" />
            <Array as="points">
              <mxPoint x="1350" y="866" />
            </Array>
          </mxGeometry>
        </mxCell>
        <mxCell id="z4wA7xu3LtJDyuMt949T-536" value="3V" style="strokeWidth=2;html=1;shape=mxgraph.flowchart.delay;whiteSpace=wrap;rotation=-90;" parent="1" vertex="1">
          <mxGeometry x="1570" y="800" width="40" height="20" as="geometry" />
        </mxCell>
        <mxCell id="z4wA7xu3LtJDyuMt949T-537" value="" style="endArrow=none;html=1;rounded=0;entryX=0;entryY=0.5;entryDx=0;entryDy=0;entryPerimeter=0;exitX=0;exitY=0.5;exitDx=0;exitDy=0;exitPerimeter=0;" parent="1" source="z4wA7xu3LtJDyuMt949T-519" target="z4wA7xu3LtJDyuMt949T-536" edge="1">
          <mxGeometry width="50" height="50" relative="1" as="geometry">
            <mxPoint x="1590" y="1060" as="sourcePoint" />
            <mxPoint x="1550" y="970" as="targetPoint" />
            <Array as="points">
              <mxPoint x="1590" y="985" />
            </Array>
          </mxGeometry>
        </mxCell>
        <mxCell id="z4wA7xu3LtJDyuMt949T-538" value="" style="endArrow=none;html=1;rounded=0;exitX=0;exitY=0.5;exitDx=0;exitDy=0;exitPerimeter=0;" parent="1" source="z4wA7xu3LtJDyuMt949T-515" edge="1">
          <mxGeometry width="50" height="50" relative="1" as="geometry">
            <mxPoint x="1500" y="960" as="sourcePoint" />
            <mxPoint x="1590" y="955" as="targetPoint" />
          </mxGeometry>
        </mxCell>
        <mxCell id="z4wA7xu3LtJDyuMt949T-539" value="" style="endArrow=none;html=1;rounded=0;exitX=0;exitY=0.5;exitDx=0;exitDy=0;exitPerimeter=0;" parent="1" source="z4wA7xu3LtJDyuMt949T-517" edge="1">
          <mxGeometry width="50" height="50" relative="1" as="geometry">
            <mxPoint x="1500" y="970" as="sourcePoint" />
            <mxPoint x="1590" y="925" as="targetPoint" />
          </mxGeometry>
        </mxCell>
        <mxCell id="z4wA7xu3LtJDyuMt949T-540" value="" style="endArrow=none;html=1;rounded=0;exitX=0;exitY=0.5;exitDx=0;exitDy=0;exitPerimeter=0;" parent="1" source="z4wA7xu3LtJDyuMt949T-518" edge="1">
          <mxGeometry width="50" height="50" relative="1" as="geometry">
            <mxPoint x="1500" y="980" as="sourcePoint" />
            <mxPoint x="1590" y="895" as="targetPoint" />
          </mxGeometry>
        </mxCell>
        <mxCell id="z4wA7xu3LtJDyuMt949T-520" value="" style="group;rotation=-360;" parent="1" vertex="1" connectable="0">
          <mxGeometry x="1320" y="840" width="200" height="180" as="geometry" />
        </mxCell>
        <mxCell id="z4wA7xu3LtJDyuMt949T-528" value="" style="group;rotation=-180;" parent="z4wA7xu3LtJDyuMt949T-520" vertex="1" connectable="0">
          <mxGeometry width="200" height="180" as="geometry" />
        </mxCell>
        <mxCell id="z4wA7xu3LtJDyuMt949T-514" value="" style="html=1;shape=mxgraph.electrical.electro-mechanical.singleSwitch;aspect=fixed;elSwitchState=off;rotation=-360;" parent="z4wA7xu3LtJDyuMt949T-528" vertex="1">
          <mxGeometry x="60" y="100" width="75" height="20" as="geometry" />
        </mxCell>
        <mxCell id="z4wA7xu3LtJDyuMt949T-512" value="" style="html=1;shape=mxgraph.electrical.electro-mechanical.singleSwitch;aspect=fixed;elSwitchState=off;rotation=-360;" parent="z4wA7xu3LtJDyuMt949T-528" vertex="1">
          <mxGeometry x="60" y="70" width="75" height="20" as="geometry" />
        </mxCell>
        <mxCell id="z4wA7xu3LtJDyuMt949T-541" value="" style="endArrow=none;html=1;rounded=0;exitX=0;exitY=0.5;exitDx=0;exitDy=0;exitPerimeter=0;" parent="z4wA7xu3LtJDyuMt949T-528" source="z4wA7xu3LtJDyuMt949T-516" edge="1">
          <mxGeometry width="50" height="50" relative="1" as="geometry">
            <mxPoint x="180" y="150" as="sourcePoint" />
            <mxPoint x="270" y="25" as="targetPoint" />
          </mxGeometry>
        </mxCell>
        <mxCell id="z4wA7xu3LtJDyuMt949T-510" value="" style="html=1;shape=mxgraph.electrical.electro-mechanical.singleSwitch;aspect=fixed;elSwitchState=off;rotation=-360;" parent="z4wA7xu3LtJDyuMt949T-528" vertex="1">
          <mxGeometry x="60" y="10" width="75" height="20" as="geometry" />
        </mxCell>
        <mxCell id="z4wA7xu3LtJDyuMt949T-516" value="" style="pointerEvents=1;verticalLabelPosition=bottom;shadow=0;dashed=0;align=center;html=1;verticalAlign=top;shape=mxgraph.electrical.resistors.resistor_2;direction=south;rotation=-270;" parent="z4wA7xu3LtJDyuMt949T-528" vertex="1">
          <mxGeometry x="190" width="10" height="50" as="geometry" />
        </mxCell>
        <mxCell id="z4wA7xu3LtJDyuMt949T-526" value="" style="endArrow=none;html=1;rounded=0;exitX=1;exitY=0.8;exitDx=0;exitDy=0;entryX=1;entryY=0.5;entryDx=0;entryDy=0;entryPerimeter=0;" parent="z4wA7xu3LtJDyuMt949T-528" source="z4wA7xu3LtJDyuMt949T-510" target="z4wA7xu3LtJDyuMt949T-516" edge="1">
          <mxGeometry width="50" height="50" relative="1" as="geometry">
            <mxPoint x="90" y="10" as="sourcePoint" />
            <mxPoint x="40" y="60" as="targetPoint" />
          </mxGeometry>
        </mxCell>
        <mxCell id="z4wA7xu3LtJDyuMt949T-513" value="" style="html=1;shape=mxgraph.electrical.electro-mechanical.singleSwitch;aspect=fixed;elSwitchState=off;rotation=-360;" parent="z4wA7xu3LtJDyuMt949T-528" vertex="1">
          <mxGeometry x="60" y="130" width="75" height="20" as="geometry" />
        </mxCell>
        <mxCell id="z4wA7xu3LtJDyuMt949T-519" value="" style="pointerEvents=1;verticalLabelPosition=bottom;shadow=0;dashed=0;align=center;html=1;verticalAlign=top;shape=mxgraph.electrical.resistors.resistor_2;direction=south;rotation=-270;" parent="z4wA7xu3LtJDyuMt949T-528" vertex="1">
          <mxGeometry x="190" y="120" width="10" height="50" as="geometry" />
        </mxCell>
        <mxCell id="z4wA7xu3LtJDyuMt949T-522" value="" style="endArrow=none;html=1;rounded=0;entryX=1;entryY=0.8;entryDx=0;entryDy=0;exitX=1;exitY=0.5;exitDx=0;exitDy=0;exitPerimeter=0;" parent="z4wA7xu3LtJDyuMt949T-528" source="z4wA7xu3LtJDyuMt949T-519" target="z4wA7xu3LtJDyuMt949T-513" edge="1">
          <mxGeometry width="50" height="50" relative="1" as="geometry">
            <mxPoint x="30" y="40" as="sourcePoint" />
            <mxPoint x="-20" y="90" as="targetPoint" />
          </mxGeometry>
        </mxCell>
        <mxCell id="z4wA7xu3LtJDyuMt949T-515" value="" style="pointerEvents=1;verticalLabelPosition=bottom;shadow=0;dashed=0;align=center;html=1;verticalAlign=top;shape=mxgraph.electrical.resistors.resistor_2;direction=south;rotation=-270;" parent="1" vertex="1">
          <mxGeometry x="1510" y="930" width="10" height="50" as="geometry" />
        </mxCell>
        <mxCell id="z4wA7xu3LtJDyuMt949T-523" value="" style="endArrow=none;html=1;rounded=0;exitX=1;exitY=0.8;exitDx=0;exitDy=0;entryX=1;entryY=0.5;entryDx=0;entryDy=0;entryPerimeter=0;" parent="1" source="z4wA7xu3LtJDyuMt949T-514" target="z4wA7xu3LtJDyuMt949T-515" edge="1">
          <mxGeometry width="50" height="50" relative="1" as="geometry">
            <mxPoint x="1340" y="890" as="sourcePoint" />
            <mxPoint x="1290" y="940" as="targetPoint" />
          </mxGeometry>
        </mxCell>
        <mxCell id="z4wA7xu3LtJDyuMt949T-517" value="" style="pointerEvents=1;verticalLabelPosition=bottom;shadow=0;dashed=0;align=center;html=1;verticalAlign=top;shape=mxgraph.electrical.resistors.resistor_2;direction=south;rotation=-270;" parent="1" vertex="1">
          <mxGeometry x="1510" y="900" width="10" height="50" as="geometry" />
        </mxCell>
        <mxCell id="z4wA7xu3LtJDyuMt949T-524" value="" style="endArrow=none;html=1;rounded=0;exitX=1;exitY=0.8;exitDx=0;exitDy=0;entryX=1;entryY=0.5;entryDx=0;entryDy=0;entryPerimeter=0;" parent="1" source="z4wA7xu3LtJDyuMt949T-512" target="z4wA7xu3LtJDyuMt949T-517" edge="1">
          <mxGeometry width="50" height="50" relative="1" as="geometry">
            <mxPoint x="1350" y="830" as="sourcePoint" />
            <mxPoint x="1300" y="880" as="targetPoint" />
          </mxGeometry>
        </mxCell>
        <mxCell id="z4wA7xu3LtJDyuMt949T-511" value="" style="html=1;shape=mxgraph.electrical.electro-mechanical.singleSwitch;aspect=fixed;elSwitchState=off;rotation=-360;" parent="1" vertex="1">
          <mxGeometry x="1380" y="880" width="75" height="20" as="geometry" />
        </mxCell>
        <mxCell id="z4wA7xu3LtJDyuMt949T-518" value="" style="pointerEvents=1;verticalLabelPosition=bottom;shadow=0;dashed=0;align=center;html=1;verticalAlign=top;shape=mxgraph.electrical.resistors.resistor_2;direction=south;rotation=-270;" parent="1" vertex="1">
          <mxGeometry x="1510" y="870" width="10" height="50" as="geometry" />
        </mxCell>
        <mxCell id="z4wA7xu3LtJDyuMt949T-525" value="" style="endArrow=none;html=1;rounded=0;exitX=1;exitY=0.8;exitDx=0;exitDy=0;entryX=1;entryY=0.5;entryDx=0;entryDy=0;entryPerimeter=0;" parent="1" source="z4wA7xu3LtJDyuMt949T-511" target="z4wA7xu3LtJDyuMt949T-518" edge="1">
          <mxGeometry width="50" height="50" relative="1" as="geometry">
            <mxPoint x="1410" y="840" as="sourcePoint" />
            <mxPoint x="1360" y="890" as="targetPoint" />
          </mxGeometry>
        </mxCell>
        <mxCell id="z4wA7xu3LtJDyuMt949T-543" value="" style="verticalLabelPosition=bottom;shadow=0;dashed=0;align=center;html=1;verticalAlign=top;shape=mxgraph.electrical.opto_electronics.led_2;pointerEvents=1;direction=south;" parent="1" vertex="1">
          <mxGeometry x="1690" y="890" width="30" height="50" as="geometry" />
        </mxCell>
        <mxCell id="z4wA7xu3LtJDyuMt949T-545" value="" style="pointerEvents=1;verticalLabelPosition=bottom;shadow=0;dashed=0;align=center;html=1;verticalAlign=top;shape=mxgraph.electrical.signal_sources.signal_ground;" parent="1" vertex="1">
          <mxGeometry x="1763" y="980" width="40" height="30" as="geometry" />
        </mxCell>
        <mxCell id="z4wA7xu3LtJDyuMt949T-572" style="edgeStyle=orthogonalEdgeStyle;rounded=0;orthogonalLoop=1;jettySize=auto;html=1;exitX=1;exitY=0.57;exitDx=0;exitDy=0;exitPerimeter=0;entryX=0.5;entryY=0;entryDx=0;entryDy=0;entryPerimeter=0;endArrow=none;endFill=0;" parent="1" source="z4wA7xu3LtJDyuMt949T-546" target="z4wA7xu3LtJDyuMt949T-545" edge="1">
          <mxGeometry relative="1" as="geometry">
            <mxPoint x="1780" y="980" as="targetPoint" />
          </mxGeometry>
        </mxCell>
        <mxCell id="z4wA7xu3LtJDyuMt949T-546" value="" style="verticalLabelPosition=bottom;shadow=0;dashed=0;align=center;html=1;verticalAlign=top;shape=mxgraph.electrical.opto_electronics.led_2;pointerEvents=1;direction=south;" parent="1" vertex="1">
          <mxGeometry x="1730" y="890" width="30" height="50" as="geometry" />
        </mxCell>
        <mxCell id="z4wA7xu3LtJDyuMt949T-573" style="edgeStyle=orthogonalEdgeStyle;rounded=0;orthogonalLoop=1;jettySize=auto;html=1;exitX=1;exitY=0.57;exitDx=0;exitDy=0;exitPerimeter=0;endArrow=none;endFill=0;" parent="1" source="z4wA7xu3LtJDyuMt949T-547" edge="1">
          <mxGeometry relative="1" as="geometry">
            <mxPoint x="1783" y="980" as="targetPoint" />
          </mxGeometry>
        </mxCell>
        <mxCell id="z4wA7xu3LtJDyuMt949T-547" value="" style="verticalLabelPosition=bottom;shadow=0;dashed=0;align=center;html=1;verticalAlign=top;shape=mxgraph.electrical.opto_electronics.led_2;pointerEvents=1;direction=south;" parent="1" vertex="1">
          <mxGeometry x="1770" y="890" width="30" height="50" as="geometry" />
        </mxCell>
        <mxCell id="z4wA7xu3LtJDyuMt949T-548" value="" style="verticalLabelPosition=bottom;shadow=0;dashed=0;align=center;html=1;verticalAlign=top;shape=mxgraph.electrical.opto_electronics.led_2;pointerEvents=1;direction=south;" parent="1" vertex="1">
          <mxGeometry x="1810" y="890" width="30" height="50" as="geometry" />
        </mxCell>
        <mxCell id="z4wA7xu3LtJDyuMt949T-549" value="" style="verticalLabelPosition=bottom;shadow=0;dashed=0;align=center;html=1;verticalAlign=top;shape=mxgraph.electrical.opto_electronics.led_2;pointerEvents=1;direction=south;" parent="1" vertex="1">
          <mxGeometry x="1850" y="890" width="30" height="50" as="geometry" />
        </mxCell>
        <mxCell id="z4wA7xu3LtJDyuMt949T-550" value="" style="verticalLabelPosition=bottom;shadow=0;dashed=0;align=center;html=1;verticalAlign=top;shape=mxgraph.electrical.opto_electronics.led_2;pointerEvents=1;direction=south;" parent="1" vertex="1">
          <mxGeometry x="1890" y="890" width="30" height="50" as="geometry" />
        </mxCell>
        <mxCell id="z4wA7xu3LtJDyuMt949T-551" value="" style="verticalLabelPosition=bottom;shadow=0;dashed=0;align=center;html=1;verticalAlign=top;shape=mxgraph.electrical.opto_electronics.led_2;pointerEvents=1;direction=south;" parent="1" vertex="1">
          <mxGeometry x="1650" y="890" width="30" height="50" as="geometry" />
        </mxCell>
        <mxCell id="z4wA7xu3LtJDyuMt949T-553" value="" style="pointerEvents=1;verticalLabelPosition=bottom;shadow=0;dashed=0;align=center;html=1;verticalAlign=top;shape=mxgraph.electrical.resistors.resistor_2;direction=south;" parent="1" vertex="1">
          <mxGeometry x="1658" y="840" width="10" height="50" as="geometry" />
        </mxCell>
        <mxCell id="z4wA7xu3LtJDyuMt949T-556" value="" style="pointerEvents=1;verticalLabelPosition=bottom;shadow=0;dashed=0;align=center;html=1;verticalAlign=top;shape=mxgraph.electrical.resistors.resistor_2;direction=south;" parent="1" vertex="1">
          <mxGeometry x="1698" y="840" width="10" height="50" as="geometry" />
        </mxCell>
        <mxCell id="z4wA7xu3LtJDyuMt949T-557" value="" style="pointerEvents=1;verticalLabelPosition=bottom;shadow=0;dashed=0;align=center;html=1;verticalAlign=top;shape=mxgraph.electrical.resistors.resistor_2;direction=south;" parent="1" vertex="1">
          <mxGeometry x="1738" y="840" width="10" height="50" as="geometry" />
        </mxCell>
        <mxCell id="z4wA7xu3LtJDyuMt949T-558" value="" style="pointerEvents=1;verticalLabelPosition=bottom;shadow=0;dashed=0;align=center;html=1;verticalAlign=top;shape=mxgraph.electrical.resistors.resistor_2;direction=south;" parent="1" vertex="1">
          <mxGeometry x="1778" y="840" width="10" height="50" as="geometry" />
        </mxCell>
        <mxCell id="z4wA7xu3LtJDyuMt949T-559" value="" style="pointerEvents=1;verticalLabelPosition=bottom;shadow=0;dashed=0;align=center;html=1;verticalAlign=top;shape=mxgraph.electrical.resistors.resistor_2;direction=south;" parent="1" vertex="1">
          <mxGeometry x="1818" y="841" width="10" height="50" as="geometry" />
        </mxCell>
        <mxCell id="z4wA7xu3LtJDyuMt949T-560" value="" style="pointerEvents=1;verticalLabelPosition=bottom;shadow=0;dashed=0;align=center;html=1;verticalAlign=top;shape=mxgraph.electrical.resistors.resistor_2;direction=south;" parent="1" vertex="1">
          <mxGeometry x="1858" y="841" width="10" height="50" as="geometry" />
        </mxCell>
        <mxCell id="z4wA7xu3LtJDyuMt949T-561" value="" style="pointerEvents=1;verticalLabelPosition=bottom;shadow=0;dashed=0;align=center;html=1;verticalAlign=top;shape=mxgraph.electrical.resistors.resistor_2;direction=south;" parent="1" vertex="1">
          <mxGeometry x="1898" y="841" width="10" height="50" as="geometry" />
        </mxCell>
        <mxCell id="z4wA7xu3LtJDyuMt949T-562" style="edgeStyle=orthogonalEdgeStyle;rounded=0;orthogonalLoop=1;jettySize=auto;html=1;exitX=0;exitY=0.5;exitDx=0;exitDy=0;exitPerimeter=0;entryX=0;entryY=0.5;entryDx=0;entryDy=0;entryPerimeter=0;endArrow=none;endFill=0;" parent="1" source="z4wA7xu3LtJDyuMt949T-404" target="z4wA7xu3LtJDyuMt949T-553" edge="1">
          <mxGeometry relative="1" as="geometry">
            <Array as="points">
              <mxPoint x="1663" y="617" />
            </Array>
          </mxGeometry>
        </mxCell>
        <mxCell id="z4wA7xu3LtJDyuMt949T-563" style="edgeStyle=orthogonalEdgeStyle;rounded=0;orthogonalLoop=1;jettySize=auto;html=1;exitX=0;exitY=0.5;exitDx=0;exitDy=0;exitPerimeter=0;entryX=0;entryY=0.5;entryDx=0;entryDy=0;entryPerimeter=0;endArrow=none;endFill=0;" parent="1" source="z4wA7xu3LtJDyuMt949T-405" target="z4wA7xu3LtJDyuMt949T-556" edge="1">
          <mxGeometry relative="1" as="geometry">
            <Array as="points">
              <mxPoint x="1703" y="648" />
            </Array>
          </mxGeometry>
        </mxCell>
        <mxCell id="z4wA7xu3LtJDyuMt949T-564" style="edgeStyle=orthogonalEdgeStyle;rounded=0;orthogonalLoop=1;jettySize=auto;html=1;exitX=0;exitY=0.5;exitDx=0;exitDy=0;exitPerimeter=0;entryX=0;entryY=0.5;entryDx=0;entryDy=0;entryPerimeter=0;endArrow=none;endFill=0;" parent="1" source="z4wA7xu3LtJDyuMt949T-406" target="z4wA7xu3LtJDyuMt949T-557" edge="1">
          <mxGeometry relative="1" as="geometry">
            <Array as="points">
              <mxPoint x="1743" y="681" />
            </Array>
          </mxGeometry>
        </mxCell>
        <mxCell id="z4wA7xu3LtJDyuMt949T-565" style="edgeStyle=orthogonalEdgeStyle;rounded=0;orthogonalLoop=1;jettySize=auto;html=1;exitX=0;exitY=0.5;exitDx=0;exitDy=0;exitPerimeter=0;entryX=0;entryY=0.5;entryDx=0;entryDy=0;entryPerimeter=0;endArrow=none;endFill=0;" parent="1" source="z4wA7xu3LtJDyuMt949T-407" target="z4wA7xu3LtJDyuMt949T-558" edge="1">
          <mxGeometry relative="1" as="geometry">
            <Array as="points">
              <mxPoint x="1783" y="708" />
            </Array>
          </mxGeometry>
        </mxCell>
        <mxCell id="z4wA7xu3LtJDyuMt949T-566" style="edgeStyle=orthogonalEdgeStyle;rounded=0;orthogonalLoop=1;jettySize=auto;html=1;exitX=0;exitY=0.5;exitDx=0;exitDy=0;exitPerimeter=0;entryX=0;entryY=0.5;entryDx=0;entryDy=0;entryPerimeter=0;endArrow=none;endFill=0;" parent="1" source="z4wA7xu3LtJDyuMt949T-408" target="z4wA7xu3LtJDyuMt949T-559" edge="1">
          <mxGeometry relative="1" as="geometry">
            <Array as="points">
              <mxPoint x="1823" y="737" />
            </Array>
          </mxGeometry>
        </mxCell>
        <mxCell id="z4wA7xu3LtJDyuMt949T-567" style="edgeStyle=orthogonalEdgeStyle;rounded=0;orthogonalLoop=1;jettySize=auto;html=1;exitX=0;exitY=0.5;exitDx=0;exitDy=0;exitPerimeter=0;entryX=0;entryY=0.5;entryDx=0;entryDy=0;entryPerimeter=0;endArrow=none;endFill=0;" parent="1" source="z4wA7xu3LtJDyuMt949T-409" target="z4wA7xu3LtJDyuMt949T-560" edge="1">
          <mxGeometry relative="1" as="geometry">
            <Array as="points">
              <mxPoint x="1863" y="768" />
            </Array>
          </mxGeometry>
        </mxCell>
        <mxCell id="z4wA7xu3LtJDyuMt949T-568" style="edgeStyle=orthogonalEdgeStyle;rounded=0;orthogonalLoop=1;jettySize=auto;html=1;exitX=0;exitY=0.5;exitDx=0;exitDy=0;exitPerimeter=0;entryX=0;entryY=0.5;entryDx=0;entryDy=0;entryPerimeter=0;endArrow=none;endFill=0;" parent="1" source="z4wA7xu3LtJDyuMt949T-411" target="z4wA7xu3LtJDyuMt949T-561" edge="1">
          <mxGeometry relative="1" as="geometry">
            <Array as="points">
              <mxPoint x="1903" y="797" />
            </Array>
          </mxGeometry>
        </mxCell>
        <mxCell id="z4wA7xu3LtJDyuMt949T-570" style="edgeStyle=orthogonalEdgeStyle;rounded=0;orthogonalLoop=1;jettySize=auto;html=1;exitX=1;exitY=0.57;exitDx=0;exitDy=0;exitPerimeter=0;entryX=0.5;entryY=0;entryDx=0;entryDy=0;entryPerimeter=0;endArrow=none;endFill=0;" parent="1" source="z4wA7xu3LtJDyuMt949T-551" target="z4wA7xu3LtJDyuMt949T-545" edge="1">
          <mxGeometry relative="1" as="geometry" />
        </mxCell>
        <mxCell id="z4wA7xu3LtJDyuMt949T-571" style="edgeStyle=orthogonalEdgeStyle;rounded=0;orthogonalLoop=1;jettySize=auto;html=1;exitX=1;exitY=0.57;exitDx=0;exitDy=0;exitPerimeter=0;entryX=0.5;entryY=0;entryDx=0;entryDy=0;entryPerimeter=0;endArrow=none;endFill=0;" parent="1" source="z4wA7xu3LtJDyuMt949T-543" target="z4wA7xu3LtJDyuMt949T-545" edge="1">
          <mxGeometry relative="1" as="geometry" />
        </mxCell>
        <mxCell id="z4wA7xu3LtJDyuMt949T-574" style="edgeStyle=orthogonalEdgeStyle;rounded=0;orthogonalLoop=1;jettySize=auto;html=1;exitX=1;exitY=0.57;exitDx=0;exitDy=0;exitPerimeter=0;entryX=0.5;entryY=0;entryDx=0;entryDy=0;entryPerimeter=0;endArrow=none;endFill=0;" parent="1" source="z4wA7xu3LtJDyuMt949T-548" target="z4wA7xu3LtJDyuMt949T-545" edge="1">
          <mxGeometry relative="1" as="geometry" />
        </mxCell>
        <mxCell id="z4wA7xu3LtJDyuMt949T-575" style="edgeStyle=orthogonalEdgeStyle;rounded=0;orthogonalLoop=1;jettySize=auto;html=1;exitX=1;exitY=0.57;exitDx=0;exitDy=0;exitPerimeter=0;entryX=0.5;entryY=0;entryDx=0;entryDy=0;entryPerimeter=0;endArrow=none;endFill=0;" parent="1" source="z4wA7xu3LtJDyuMt949T-549" target="z4wA7xu3LtJDyuMt949T-545" edge="1">
          <mxGeometry relative="1" as="geometry" />
        </mxCell>
        <mxCell id="z4wA7xu3LtJDyuMt949T-576" style="edgeStyle=orthogonalEdgeStyle;rounded=0;orthogonalLoop=1;jettySize=auto;html=1;exitX=1;exitY=0.57;exitDx=0;exitDy=0;exitPerimeter=0;entryX=0.5;entryY=0;entryDx=0;entryDy=0;entryPerimeter=0;endArrow=none;endFill=0;" parent="1" source="z4wA7xu3LtJDyuMt949T-550" target="z4wA7xu3LtJDyuMt949T-545" edge="1">
          <mxGeometry relative="1" as="geometry" />
        </mxCell>
        <mxCell id="z4wA7xu3LtJDyuMt949T-577" value="PA2" style="strokeWidth=2;html=1;shape=mxgraph.flowchart.delay;whiteSpace=wrap;rotation=0;direction=west;" parent="1" vertex="1">
          <mxGeometry x="500" y="740.6099999999999" width="40" height="20" as="geometry" />
        </mxCell>
        <mxCell id="z4wA7xu3LtJDyuMt949T-578" value="PA3" style="strokeWidth=2;html=1;shape=mxgraph.flowchart.delay;whiteSpace=wrap;rotation=0;direction=west;" parent="1" vertex="1">
          <mxGeometry x="500" y="767.18" width="40" height="20" as="geometry" />
        </mxCell>
        <mxCell id="z4wA7xu3LtJDyuMt949T-579" value="PA2" style="strokeWidth=2;html=1;shape=mxgraph.flowchart.delay;whiteSpace=wrap;rotation=0;" parent="1" vertex="1">
          <mxGeometry x="1330" y="737.18" width="40" height="20" as="geometry" />
        </mxCell>
        <mxCell id="z4wA7xu3LtJDyuMt949T-580" value="PA3" style="strokeWidth=2;html=1;shape=mxgraph.flowchart.delay;whiteSpace=wrap;rotation=0;" parent="1" vertex="1">
          <mxGeometry x="1330" y="767.18" width="40" height="20" as="geometry" />
        </mxCell>
        <mxCell id="z4wA7xu3LtJDyuMt949T-581" style="edgeStyle=orthogonalEdgeStyle;rounded=0;orthogonalLoop=1;jettySize=auto;html=1;entryX=0;entryY=0.5;entryDx=0;entryDy=0;entryPerimeter=0;endArrow=none;endFill=0;" parent="1" target="z4wA7xu3LtJDyuMt949T-577" edge="1">
          <mxGeometry relative="1" as="geometry">
            <Array as="points">
              <mxPoint x="580" y="780" />
              <mxPoint x="580" y="751" />
            </Array>
            <mxPoint x="1330" y="780" as="sourcePoint" />
          </mxGeometry>
        </mxCell>
        <mxCell id="z4wA7xu3LtJDyuMt949T-582" style="edgeStyle=orthogonalEdgeStyle;rounded=0;orthogonalLoop=1;jettySize=auto;html=1;exitX=0;exitY=0.5;exitDx=0;exitDy=0;exitPerimeter=0;entryX=0;entryY=0.5;entryDx=0;entryDy=0;entryPerimeter=0;endArrow=none;endFill=0;" parent="1" source="z4wA7xu3LtJDyuMt949T-579" target="z4wA7xu3LtJDyuMt949T-578" edge="1">
          <mxGeometry relative="1" as="geometry">
            <Array as="points">
              <mxPoint x="1330" y="750" />
              <mxPoint x="1270" y="750" />
              <mxPoint x="1270" y="820" />
              <mxPoint x="560" y="820" />
              <mxPoint x="560" y="777" />
            </Array>
          </mxGeometry>
        </mxCell>
        <mxCell id="wX1Lu-52C3DSgGbVpQo7-18" value="&lt;font style=&quot;font-size: 9px;&quot;&gt;330&lt;/font&gt;" style="text;html=1;align=center;verticalAlign=middle;resizable=0;points=[];autosize=1;strokeColor=none;fillColor=none;rotation=-90;" parent="1" vertex="1">
          <mxGeometry x="980" y="468.75" width="40" height="30" as="geometry" />
        </mxCell>
        <mxCell id="wX1Lu-52C3DSgGbVpQo7-19" value="&lt;font style=&quot;font-size: 9px;&quot;&gt;330&lt;/font&gt;" style="text;html=1;align=center;verticalAlign=middle;resizable=0;points=[];autosize=1;strokeColor=none;fillColor=none;rotation=-90;" parent="1" vertex="1">
          <mxGeometry x="1010" y="468.75" width="40" height="30" as="geometry" />
        </mxCell>
        <mxCell id="wX1Lu-52C3DSgGbVpQo7-20" value="&lt;font style=&quot;font-size: 9px;&quot;&gt;330&lt;/font&gt;" style="text;html=1;align=center;verticalAlign=middle;resizable=0;points=[];autosize=1;strokeColor=none;fillColor=none;rotation=-90;" parent="1" vertex="1">
          <mxGeometry x="1040" y="470" width="40" height="30" as="geometry" />
        </mxCell>
        <mxCell id="wX1Lu-52C3DSgGbVpQo7-21" value="&lt;font style=&quot;font-size: 9px;&quot;&gt;330&lt;/font&gt;" style="text;html=1;align=center;verticalAlign=middle;resizable=0;points=[];autosize=1;strokeColor=none;fillColor=none;rotation=-90;" parent="1" vertex="1">
          <mxGeometry x="1070" y="470" width="40" height="30" as="geometry" />
        </mxCell>
        <mxCell id="wX1Lu-52C3DSgGbVpQo7-22" value="&lt;font style=&quot;font-size: 9px;&quot;&gt;330&lt;/font&gt;" style="text;html=1;align=center;verticalAlign=middle;resizable=0;points=[];autosize=1;strokeColor=none;fillColor=none;rotation=-90;" parent="1" vertex="1">
          <mxGeometry x="1100" y="470" width="40" height="30" as="geometry" />
        </mxCell>
        <mxCell id="wX1Lu-52C3DSgGbVpQo7-23" value="&lt;font style=&quot;font-size: 9px;&quot;&gt;330&lt;/font&gt;" style="text;html=1;align=center;verticalAlign=middle;resizable=0;points=[];autosize=1;strokeColor=none;fillColor=none;rotation=-90;" parent="1" vertex="1">
          <mxGeometry x="1130" y="470" width="40" height="30" as="geometry" />
        </mxCell>
        <mxCell id="wX1Lu-52C3DSgGbVpQo7-24" value="&lt;font style=&quot;font-size: 9px;&quot;&gt;330&lt;/font&gt;" style="text;html=1;align=center;verticalAlign=middle;resizable=0;points=[];autosize=1;strokeColor=none;fillColor=none;rotation=-90;" parent="1" vertex="1">
          <mxGeometry x="1160" y="470" width="40" height="30" as="geometry" />
        </mxCell>
        <mxCell id="wX1Lu-52C3DSgGbVpQo7-25" value="&lt;font style=&quot;font-size: 9px;&quot;&gt;1000&lt;/font&gt;" style="text;html=1;align=center;verticalAlign=middle;resizable=0;points=[];autosize=1;strokeColor=none;fillColor=none;rotation=0;" parent="1" vertex="1">
          <mxGeometry x="1290" y="420" width="40" height="30" as="geometry" />
        </mxCell>
        <mxCell id="wX1Lu-52C3DSgGbVpQo7-26" value="&lt;font style=&quot;font-size: 9px;&quot;&gt;1000&lt;/font&gt;" style="text;html=1;align=center;verticalAlign=middle;resizable=0;points=[];autosize=1;strokeColor=none;fillColor=none;rotation=0;" parent="1" vertex="1">
          <mxGeometry x="1290" y="452.18" width="40" height="30" as="geometry" />
        </mxCell>
        <mxCell id="wX1Lu-52C3DSgGbVpQo7-27" value="&lt;font style=&quot;font-size: 9px;&quot;&gt;1000&lt;/font&gt;" style="text;html=1;align=center;verticalAlign=middle;resizable=0;points=[];autosize=1;strokeColor=none;fillColor=none;rotation=0;" parent="1" vertex="1">
          <mxGeometry x="1290" y="479.69" width="40" height="30" as="geometry" />
        </mxCell>
        <mxCell id="wX1Lu-52C3DSgGbVpQo7-28" value="&lt;font style=&quot;font-size: 9px;&quot;&gt;1000&lt;/font&gt;" style="text;html=1;align=center;verticalAlign=middle;resizable=0;points=[];autosize=1;strokeColor=none;fillColor=none;rotation=0;" parent="1" vertex="1">
          <mxGeometry x="1290" y="505" width="40" height="30" as="geometry" />
        </mxCell>
        <mxCell id="wX1Lu-52C3DSgGbVpQo7-29" value="&lt;font style=&quot;font-size: 9px;&quot;&gt;1000&lt;/font&gt;" style="text;html=1;align=center;verticalAlign=middle;resizable=0;points=[];autosize=1;strokeColor=none;fillColor=none;rotation=0;" parent="1" vertex="1">
          <mxGeometry x="1992.73" y="1094.02" width="40" height="30" as="geometry" />
        </mxCell>
        <mxCell id="wX1Lu-52C3DSgGbVpQo7-30" value="&lt;font style=&quot;font-size: 9px;&quot;&gt;1000&lt;/font&gt;" style="text;html=1;align=center;verticalAlign=middle;resizable=0;points=[];autosize=1;strokeColor=none;fillColor=none;rotation=0;" parent="1" vertex="1">
          <mxGeometry x="1493" y="831" width="40" height="30" as="geometry" />
        </mxCell>
        <mxCell id="wX1Lu-52C3DSgGbVpQo7-31" value="&lt;font style=&quot;font-size: 9px;&quot;&gt;1000&lt;/font&gt;" style="text;html=1;align=center;verticalAlign=middle;resizable=0;points=[];autosize=1;strokeColor=none;fillColor=none;rotation=0;" parent="1" vertex="1">
          <mxGeometry x="1493" y="865" width="40" height="30" as="geometry" />
        </mxCell>
        <mxCell id="wX1Lu-52C3DSgGbVpQo7-32" value="&lt;font style=&quot;font-size: 9px;&quot;&gt;1000&lt;/font&gt;" style="text;html=1;align=center;verticalAlign=middle;resizable=0;points=[];autosize=1;strokeColor=none;fillColor=none;rotation=0;" parent="1" vertex="1">
          <mxGeometry x="1493" y="895" width="40" height="30" as="geometry" />
        </mxCell>
        <mxCell id="wX1Lu-52C3DSgGbVpQo7-33" value="&lt;font style=&quot;font-size: 9px;&quot;&gt;1000&lt;/font&gt;" style="text;html=1;align=center;verticalAlign=middle;resizable=0;points=[];autosize=1;strokeColor=none;fillColor=none;rotation=0;" parent="1" vertex="1">
          <mxGeometry x="1493" y="925" width="40" height="30" as="geometry" />
        </mxCell>
        <mxCell id="wX1Lu-52C3DSgGbVpQo7-34" value="&lt;font style=&quot;font-size: 9px;&quot;&gt;1000&lt;/font&gt;" style="text;html=1;align=center;verticalAlign=middle;resizable=0;points=[];autosize=1;strokeColor=none;fillColor=none;rotation=0;" parent="1" vertex="1">
          <mxGeometry x="1493" y="955" width="40" height="30" as="geometry" />
        </mxCell>
        <mxCell id="wX1Lu-52C3DSgGbVpQo7-35" value="&lt;font style=&quot;font-size: 7px;&quot;&gt;Digit1&lt;/font&gt;" style="text;html=1;align=center;verticalAlign=middle;whiteSpace=wrap;rounded=0;" parent="1" vertex="1">
          <mxGeometry x="1750" y="588" width="28" height="21.14" as="geometry" />
        </mxCell>
        <mxCell id="wX1Lu-52C3DSgGbVpQo7-36" value="&lt;font style=&quot;font-size: 7px;&quot;&gt;Digit2&lt;/font&gt;" style="text;html=1;align=center;verticalAlign=middle;whiteSpace=wrap;rounded=0;" parent="1" vertex="1">
          <mxGeometry x="1816" y="591" width="12" height="15.29" as="geometry" />
        </mxCell>
        <mxCell id="wX1Lu-52C3DSgGbVpQo7-37" value="&lt;font style=&quot;font-size: 7px;&quot;&gt;Digit3&lt;/font&gt;" style="text;html=1;align=center;verticalAlign=middle;whiteSpace=wrap;rounded=0;" parent="1" vertex="1">
          <mxGeometry x="1872" y="593" width="12" height="11" as="geometry" />
        </mxCell>
        <mxCell id="wX1Lu-52C3DSgGbVpQo7-38" value="&lt;font style=&quot;font-size: 7px;&quot;&gt;Digit4&lt;/font&gt;" style="text;html=1;align=center;verticalAlign=middle;whiteSpace=wrap;rounded=0;" parent="1" vertex="1">
          <mxGeometry x="1926" y="595.29" width="12" height="11" as="geometry" />
        </mxCell>
        <mxCell id="wX1Lu-52C3DSgGbVpQo7-40" value="&lt;font style=&quot;font-size: 9px;&quot;&gt;330&lt;/font&gt;" style="text;html=1;align=center;verticalAlign=middle;resizable=0;points=[];autosize=1;strokeColor=none;fillColor=none;rotation=-90;" parent="1" vertex="1">
          <mxGeometry x="1741" y="471" width="40" height="30" as="geometry" />
        </mxCell>
        <mxCell id="wX1Lu-52C3DSgGbVpQo7-41" value="&lt;font style=&quot;font-size: 9px;&quot;&gt;330&lt;/font&gt;" style="text;html=1;align=center;verticalAlign=middle;resizable=0;points=[];autosize=1;strokeColor=none;fillColor=none;rotation=-90;" parent="1" vertex="1">
          <mxGeometry x="1771" y="471" width="40" height="30" as="geometry" />
        </mxCell>
        <mxCell id="wX1Lu-52C3DSgGbVpQo7-42" value="&lt;font style=&quot;font-size: 9px;&quot;&gt;330&lt;/font&gt;" style="text;html=1;align=center;verticalAlign=middle;resizable=0;points=[];autosize=1;strokeColor=none;fillColor=none;rotation=-90;" parent="1" vertex="1">
          <mxGeometry x="1801" y="472.25" width="40" height="30" as="geometry" />
        </mxCell>
        <mxCell id="wX1Lu-52C3DSgGbVpQo7-43" value="&lt;font style=&quot;font-size: 9px;&quot;&gt;330&lt;/font&gt;" style="text;html=1;align=center;verticalAlign=middle;resizable=0;points=[];autosize=1;strokeColor=none;fillColor=none;rotation=-90;" parent="1" vertex="1">
          <mxGeometry x="1831" y="472.25" width="40" height="30" as="geometry" />
        </mxCell>
        <mxCell id="wX1Lu-52C3DSgGbVpQo7-44" value="&lt;font style=&quot;font-size: 9px;&quot;&gt;330&lt;/font&gt;" style="text;html=1;align=center;verticalAlign=middle;resizable=0;points=[];autosize=1;strokeColor=none;fillColor=none;rotation=-90;" parent="1" vertex="1">
          <mxGeometry x="1861" y="472.25" width="40" height="30" as="geometry" />
        </mxCell>
        <mxCell id="wX1Lu-52C3DSgGbVpQo7-45" value="&lt;font style=&quot;font-size: 9px;&quot;&gt;330&lt;/font&gt;" style="text;html=1;align=center;verticalAlign=middle;resizable=0;points=[];autosize=1;strokeColor=none;fillColor=none;rotation=-90;" parent="1" vertex="1">
          <mxGeometry x="1891" y="472.25" width="40" height="30" as="geometry" />
        </mxCell>
        <mxCell id="wX1Lu-52C3DSgGbVpQo7-46" value="&lt;font style=&quot;font-size: 9px;&quot;&gt;330&lt;/font&gt;" style="text;html=1;align=center;verticalAlign=middle;resizable=0;points=[];autosize=1;strokeColor=none;fillColor=none;rotation=-90;" parent="1" vertex="1">
          <mxGeometry x="1921" y="472.25" width="40" height="30" as="geometry" />
        </mxCell>
      </root>
    </mxGraphModel>
  </diagram>
</mxfile>
